<?xml version="1.0" encoding="UTF-8"?>
<!DOCTYPE svg PUBLIC "-//W3C//DTD SVG 1.1//EN" "http://www.w3.org/Graphics/SVG/1.1/DTD/svg11.dtd">
<!-- Creator: CorelDRAW 2017 -->
<svg xmlns="http://www.w3.org/2000/svg" xml:space="preserve" width="6.677mm" height="6.677mm" version="1.1" style="shape-rendering:geometricPrecision; text-rendering:geometricPrecision; image-rendering:optimizeQuality; fill-rule:evenodd; clip-rule:evenodd"
viewBox="0 0 668 668"
 xmlns:xlink="http://www.w3.org/1999/xlink">
 <defs>
  <style type="text/css">
   <![CDATA[
    .fil0 {fill:#FEFEFE}
   ]]>
  </style>
 </defs>
 <g id="Camada_x0020_1">
  <metadata id="CorelCorpID_0Corel-Layer"/>
  <path class="fil0" d="M660 8c-11,-11 -28,-11 -38,0l-614 614c-11,11 -11,28 0,38 5,5 12,8 19,8 7,0 14,-3 19,-8l614 -614c11,-11 11,-28 0,-38z"/>
  <path class="fil0" d="M660 622l-614 -614c-11,-11 -28,-11 -38,0 -11,11 -11,28 0,38l614 614c5,5 12,8 19,8 7,0 14,-3 19,-8 11,-11 11,-28 0,-38z"/>
 </g>
</svg>
