<?xml version="1.0" encoding="UTF-8"?>
<!DOCTYPE svg PUBLIC "-//W3C//DTD SVG 1.1//EN" "http://www.w3.org/Graphics/SVG/1.1/DTD/svg11.dtd">
<!-- Creator: CorelDRAW 2017 -->
<svg xmlns="http://www.w3.org/2000/svg" xml:space="preserve" width="45.204mm" height="6.677mm" version="1.1" style="shape-rendering:geometricPrecision; text-rendering:geometricPrecision; image-rendering:optimizeQuality; fill-rule:evenodd; clip-rule:evenodd"
viewBox="0 0 4520 668"
 xmlns:xlink="http://www.w3.org/1999/xlink">
 <defs>
  <style type="text/css">
   <![CDATA[
    .fil0 {fill:#FEFEFE;fill-rule:nonzero}
   ]]>
  </style>
 </defs>
 <g id="Camada_x0020_1">
  <metadata id="CorelCorpID_0Corel-Layer"/>
  <path class="fil0" d="M202 529c-36,0 -75,-29 -75,-65l-127 27c15,95 104,168 203,168 108,0 204,-87 204,-195 0,-89 -71,-151 -152,-174 -44,-13 -117,-29 -117,-86 0,-35 29,-65 65,-65 35,0 64,30 64,65l128 -27c-13,-95 -95,-167 -193,-167 -108,0 -195,87 -195,194 0,87 69,151 147,178 44,15 122,24 122,82 0,36 -39,65 -74,65l1 1z"/>
  <path id="1" class="fil0" d="M763 10c-89,0 -166,32 -229,96 -63,64 -95,140 -95,229 0,89 32,166 95,229 63,62 140,94 229,94 90,0 166,-31 230,-94 64,-63 95,-140 95,-229 0,-89 -32,-166 -95,-229 -64,-64 -140,-96 -230,-96zm0 130c54,0 99,19 137,57 38,38 58,84 58,137 0,54 -19,100 -58,138 -38,38 -84,57 -137,57 -54,0 -100,-19 -138,-57 -38,-38 -57,-84 -57,-138 0,-53 19,-99 57,-137 38,-38 84,-57 138,-57z"/>
  <path id="2" class="fil0" d="M1401 531c-70,0 -129,-59 -129,-129l0 -387 -129 0 0 387c0,71 25,132 76,183 50,50 111,75 183,75 71,0 132,-25 182,-75 50,-50 76,-111 76,-183l0 -387 -129 0 0 387c0,69 -60,129 -129,129z"/>
  <polygon id="3" class="fil0" points="1740,2 1740,656 1868,656 1868,300 2254,668 2254,14 2125,14 2125,369 "/>
  <path id="4" class="fil0" d="M2504 16l-170 0 0 639 170 0c93,0 171,-31 234,-94 57,-57 86,-132 86,-225 0,-93 -29,-169 -86,-226 -55,-54 -133,-94 -234,-94l0 0zm191 319c0,115 -75,192 -191,192l-43 0 0 -384 42 0c115,0 192,77 192,192z"/>
  <polygon id="5" class="fil0" points="3117,0 3117,655 3245,655 3245,390 3430,644 3615,390 3615,655 3743,655 3743,0 3430,430 "/>
  <polygon id="6" class="fil0" points="3823,655 3951,655 3951,15 3823,15 "/>
  <polygon id="7" class="fil0" points="4007,15 4189,335 4007,654 4154,655 4263,464 4373,655 4520,655 4337,335 4520,15 4373,15 4263,205 4154,15 "/>
 </g>
</svg>
