<?xml version="1.0" encoding="UTF-8"?>
<!DOCTYPE svg PUBLIC "-//W3C//DTD SVG 1.1//EN" "http://www.w3.org/Graphics/SVG/1.1/DTD/svg11.dtd">
<!-- Creator: CorelDRAW 2017 -->
<svg xmlns="http://www.w3.org/2000/svg" xml:space="preserve" width="54.501mm" height="57.138mm" version="1.1" style="shape-rendering:geometricPrecision; text-rendering:geometricPrecision; image-rendering:optimizeQuality; fill-rule:evenodd; clip-rule:evenodd"
viewBox="0 0 5450 5714"
 xmlns:xlink="http://www.w3.org/1999/xlink">
 <defs>
  <style type="text/css">
   <![CDATA[
    .fil2 {fill:none}
    .fil1 {fill:#FEFEFE}
    .fil0 {fill:#FEFEFE;fill-rule:nonzero}
   ]]>
  </style>
 </defs>
 <g id="Camada_x0020_1">
  <metadata id="CorelCorpID_0Corel-Layer"/>
  <g id="_813225432">
   <g>
    <path class="fil0" d="M537 4507c-57,6 -116,7 -175,3 -44,-5 -71,-9 -82,-13l-53 -35c-61,-45 -102,-85 -124,-118 -28,-35 -53,-72 -74,-112l-17 -45c-13,-46 -12,-91 2,-137 7,-21 18,-41 33,-58 -1,-3 2,-6 8,-7l46 -65c66,-70 171,-145 315,-226 38,-17 90,-37 155,-61 68,-25 119,-40 153,-46l78 -20c6,-2 17,-6 31,-11 14,-6 28,-6 38,-3 10,1 15,4 15,9 -1,5 -8,11 -22,18 -19,5 -44,18 -78,40 -8,6 -16,9 -24,9 -8,1 -14,3 -20,8 -6,2 -11,5 -15,9 -3,5 -8,9 -13,13 -18,6 -31,10 -39,16 -17,11 -30,18 -39,20 -2,4 -6,6 -13,8 -6,2 -10,5 -13,9 -3,1 -4,4 -2,10 -2,4 -6,6 -10,7 -4,2 -6,2 -6,2 -11,9 -17,7 -17,-6 -12,3 -19,7 -21,10 -18,6 -33,11 -45,17 -11,6 -20,12 -29,17 -5,8 -11,13 -20,15 -3,2 -8,2 -13,4 -6,2 -10,6 -12,13 6,-2 13,-4 20,-7 7,-4 16,-6 25,-5 -4,8 -13,15 -28,22 -14,7 -25,13 -34,19l-31 28 -43 21 -63 56c-79,67 -138,146 -175,237 -12,29 -15,54 -9,75 8,17 28,35 58,53 86,42 177,61 274,54 66,-8 130,-20 194,-38 64,-17 127,-39 188,-65 94,-38 160,-68 200,-92 12,-6 26,-15 45,-24 19,-10 35,-20 48,-30 25,-17 40,-28 46,-32 3,-1 8,-4 14,-11 6,-6 14,-11 23,-13 2,-4 6,-7 9,-10 5,-2 8,-6 10,-9l35 -29 64 -56c33,-35 59,-75 78,-119 19,-44 29,-90 30,-135 0,-13 -3,-28 -8,-46 -12,-46 -35,-83 -67,-114 -33,-31 -66,-57 -99,-79 -34,-22 -57,-36 -68,-42 -60,-39 -127,-80 -204,-121l-120 -66c-83,-46 -169,-94 -256,-145 -86,-52 -162,-105 -226,-160 -8,-5 -15,-10 -22,-18 -7,-9 -16,-16 -28,-22 -98,-101 -168,-191 -209,-271 -13,-23 -26,-58 -39,-107 -20,-73 -27,-149 -22,-228 1,-7 2,-17 2,-30 0,-13 2,-28 7,-46l7 -65c2,-6 4,-13 7,-19 3,-6 6,-10 9,-14 2,-14 6,-24 10,-32 10,-25 17,-40 22,-45 -3,10 -10,28 -20,52 -10,24 -13,36 -9,39l32 -62c2,-4 3,-8 4,-13 0,-5 3,-9 9,-14 2,-4 4,-8 6,-12 2,-4 5,-8 6,-12 7,-11 16,-26 28,-43 12,-18 24,-34 36,-46 13,-17 36,-47 71,-92 35,-46 72,-83 109,-112 10,-9 17,-14 20,-15l17 -24c2,-4 6,-6 10,-8 5,-2 9,-4 10,-8 3,-1 10,-6 20,-15 13,-13 31,-28 54,-44 24,-16 42,-29 56,-39 2,-1 6,-3 9,-7 4,-5 8,-7 10,-8 2,-4 7,-6 13,-6 6,0 9,0 9,0 9,-6 16,-12 22,-18 6,-6 14,-13 22,-18 12,-6 29,-13 53,-19l65 -32 -3 -9c9,-2 19,-8 30,-17 3,-1 8,-2 16,-4 8,-2 14,-6 20,-10l-37 9c1,3 0,6 -3,6l-13 3 -68 23 -69 33c-6,2 -17,7 -32,17 -16,9 -25,13 -29,10 15,-17 37,-32 66,-45 29,-13 48,-22 57,-28 32,-12 81,-26 145,-43 47,-16 111,-10 189,17 72,24 127,56 167,97 36,36 65,79 88,128l17 64c6,34 7,70 2,108 -4,39 -11,77 -20,116l-6 50c-2,20 -12,47 -32,82 -9,16 -19,38 -31,67 -7,22 -20,48 -38,79 4,2 -2,13 -17,34 -16,20 -28,35 -35,44 -24,17 -47,24 -67,23 -9,2 -15,-1 -17,-10l2 -10c12,-17 23,-47 34,-92l34 -112c15,-53 35,-131 58,-236 14,-59 18,-108 14,-149 -1,-13 -4,-32 -10,-56 -9,-34 -23,-61 -42,-82 -34,-30 -72,-48 -112,-53 -13,1 -30,3 -51,9 -28,7 -64,20 -112,39l-175 76c-39,17 -68,36 -92,58 -6,5 -9,9 -13,13 -4,5 -10,8 -20,10 -3,1 -9,4 -19,10 -10,6 -13,10 -9,12 -1,-2 -5,-6 -13,-11l6 23c-3,1 -9,-1 -17,-6 4,2 6,6 5,9 0,3 -1,6 -1,6 -6,2 -11,1 -15,-2 -5,8 -6,12 -6,12 -9,2 -17,1 -21,-4 -1,20 -2,31 -5,35l-33 24c-4,8 -11,13 -20,15 0,0 -1,-2 -3,-4 -2,-2 -5,-3 -8,-2 -3,1 -6,3 -8,7 -2,3 -4,6 -4,6l9 -2c2,6 1,9 -2,10 -2,4 -6,6 -13,8l-6 17c0,9 -5,17 -13,23 -9,6 -17,14 -23,26l-11 13 -9 2 4 13 -20 20c-13,9 -30,28 -49,52 -9,16 -13,23 -13,23l-8 7c-6,2 -9,6 -7,12l-16 14c-3,1 -3,6 -1,15 -1,9 -5,17 -13,23 -8,9 -13,15 -15,19l-7 26 1 5c-6,2 -5,5 2,9 2,6 2,11 -1,15 -2,4 -6,6 -13,6 -6,0 -11,2 -13,6 9,-2 15,-1 17,6 2,6 1,13 -2,22 -2,9 -5,15 -7,19 -2,4 -3,9 -3,16 0,6 -2,12 -8,17 -2,4 -7,7 -15,9 -7,2 -13,4 -16,5 2,9 9,19 17,29 2,6 1,20 -4,40l-8 42c3,12 2,22 -2,30l-11 -7c2,6 -1,10 -7,12 9,-2 15,-2 17,0 2,3 3,6 3,12 0,5 0,9 1,12 -4,11 -2,30 6,57 14,51 27,88 39,111 39,81 92,148 161,201l112 68 118 76 367 204c19,12 62,35 129,73 67,37 126,77 176,119 142,108 229,219 259,331 4,15 8,42 11,79 7,109 -24,200 -92,274l-16 13c1,3 0,5 -2,6 -2,0 -2,1 -2,1 -7,-5 -10,-4 -9,2 -12,6 -23,16 -34,28 -11,13 -23,22 -34,29l40 -50 -181 146 9 13c2,-4 6,-7 10,-8 5,-2 9,-1 13,2l-72 58 -41 11 38 -39 -31 9 -5 1 5 -1c-11,6 -28,12 -49,18l13 11c-17,20 -38,29 -61,26 -16,14 -25,23 -27,27l42 -6c-28,17 -68,39 -119,66l-20 -4 9 -22c-35,16 -61,26 -79,31l49 2c-48,26 -105,48 -172,66 -52,13 -105,23 -159,28zm-294 -57c-2,1 -5,-1 -6,-4l6 4zm26 22c7,2 15,1 24,-2 9,-2 15,-7 16,-14l-9 2c-3,1 -5,0 -6,-3 -1,-3 -3,-4 -6,-3l-9 2 -42 -9c5,6 6,6 6,4l12 6 14 16zm106 16l-4 1 4 -1zm-111 -68l0 0 0 0zm134 62c4,-11 2,-17 -5,-18 -6,-2 -12,-3 -16,-6 -3,1 -13,0 -30,-2 -17,-2 -27,-1 -28,3 -2,4 -1,7 5,9 5,2 9,2 13,2l20 4 7 8 13 -8 21 9zm-196 -113c2,-4 0,-6 -6,-4 1,3 3,5 6,4zm237 102c-3,1 -8,0 -13,-2 -5,-2 -9,-1 -11,3 7,2 15,1 24,-2zm28 -3c5,-5 12,-6 20,-5 9,2 15,-1 20,-6 -2,-9 -7,-13 -13,-13 -6,0 -11,1 -14,2 -2,4 -5,8 -7,12 -2,4 -4,7 -6,11zm123 21c-1,-3 -2,-5 -4,-4 -1,0 -2,2 -1,5l5 -1zm-25 -23c4,6 9,4 13,-3 5,-8 2,-12 -9,-13 2,6 0,11 -5,16zm-19 -14c-8,-5 -13,-5 -15,-1 3,-1 8,-1 15,1 7,2 12,-3 16,-14 -7,-2 -12,3 -16,14zm64 -17c8,5 15,1 21,-10 -5,4 -12,8 -21,10zm-537 -329c2,-4 0,-5 -6,-3 1,3 3,4 6,3zm-24 -13c2,-4 1,-5 -6,-3 0,0 0,1 1,2 0,2 2,2 5,1zm650 368c-1,-3 -2,-5 -4,-4 -1,0 -2,2 -1,5l5 -1zm-35 -20c3,-1 4,-4 2,-10 -5,-5 -4,-9 2,-10 3,-1 6,-2 6,-4 2,-2 -2,-4 -9,-6l-10 -2c-6,2 -11,7 -15,16 -4,9 -7,16 -9,20 3,-1 7,-2 13,-6 6,-3 9,-9 11,-16l5 19 5 -2zm22 -25c-2,1 -2,2 2,4l-2 -4zm73 34c22,-16 36,-21 44,-17 -2,-9 -7,-14 -14,-16 -6,2 -11,6 -16,14 -2,1 -8,3 -14,9 -7,5 -17,4 -28,-2 4,15 13,19 28,12zm-2 -43c1,3 2,5 3,4 2,-1 2,-2 1,-6l-4 2zm-6 -3l0 0 0 0zm79 42l0 0 0 0zm-67 -50c8,5 13,3 13,-3l-13 3zm20 -15c-7,-2 -13,0 -18,5l18 -5zm34 1c-3,-2 -6,-8 -9,-17l-21 11c9,7 19,9 31,6zm31 -13c0,0 1,1 1,2 1,2 2,0 4,-3 -1,-3 -2,-3 -5,1zm59 18c1,3 2,4 6,2 2,-2 3,-6 2,-8l-8 6zm-13 -11l0 0 0 0zm15 -33l0 0 0 0zm25 37c21,-6 35,-14 42,-26 -12,3 -19,2 -20,-4 -2,4 -9,9 -18,14 -10,6 -14,13 -13,18l9 -2zm-46 -42c13,-3 21,-7 26,-12 -6,-8 -10,-9 -15,-1 -4,8 -8,12 -11,13zm57 -24l0 0 0 0zm25 2c-2,1 -5,1 -5,-1 -1,-2 -1,-2 -1,-2 -3,1 -4,2 -4,4 1,1 2,2 6,1l4 -2zm-5 -18c5,6 9,4 14,-3 -4,-2 -9,-2 -14,3zm69 40c2,-4 7,-9 13,-16 6,-6 14,-9 24,-9 -8,18 -20,27 -38,24zm-34 -54c-6,2 -9,6 -11,13l11 -13zm-694 -385c6,-2 9,-6 7,-12l-7 12zm779 391l0 0 0 0zm-768 -462l1 4 -1 -4zm785 453c-2,1 -3,-1 -1,-4 0,0 1,0 3,2 2,1 1,2 -2,2zm-66 -11c3,-1 11,-7 24,-19 13,-12 12,-16 -3,-12 -10,0 -17,9 -21,31zm-676 -410c6,-2 11,-5 15,-9 4,-5 6,-10 8,-17 -9,6 -16,14 -23,26zm721 378c-1,-3 -4,-4 -10,-2 1,3 5,4 10,2zm31 25c9,-2 14,-7 16,-13 -9,2 -14,7 -16,13zm34 -19l-1 -4c-6,2 -9,6 -7,11l8 -7zm9 17c17,-11 26,-20 28,-27 -18,5 -28,14 -28,27zm-739 -447c3,-1 3,-2 2,-2 -2,-2 -5,-3 -9,-6 2,6 4,9 7,8zm76 -25c-3,1 -6,0 -6,-3 3,-1 6,0 6,3zm745 415c1,3 1,5 -1,6 -2,0 -2,-1 -3,-4l4 -2zm-737 -417c6,-14 13,-23 23,-25 17,-11 26,-19 28,-23 9,-2 13,0 11,7 -1,7 -5,13 -9,17 -6,5 -14,9 -26,12 -13,3 -21,7 -27,12zm-6 -57c0,0 1,-1 2,-1 2,-1 2,-2 2,-6 0,0 -1,0 -2,1 -2,1 -2,2 -2,6zm783 444c2,-4 6,-10 10,-17 4,-8 9,-13 16,-14 6,-5 9,-6 11,-3 2,2 2,5 0,9 -6,12 -17,20 -32,24l-5 2zm-686 -432c1,3 0,4 -2,3 -2,-1 -3,-2 -3,-2l5 -2zm-1 -19c-6,2 -9,4 -8,7l8 -7zm43 -21l2 4 -17 9 16 -13zm15 1c5,-8 9,-12 14,-11 5,0 9,0 12,-1 -12,3 -20,7 -26,12zm31 -86l0 0 0 0zm96 -6l-9 2 9 -2zm-679 -1204l0 0 0 0 2 5 -2 -5zm0 -19c-3,1 -4,4 -2,10l2 -10zm22 9c0,0 0,-1 -1,-2 0,-2 -2,-2 -6,-2 -2,4 0,6 6,4zm-16 -94c0,0 1,-1 2,-1 2,-1 2,-2 2,-5 -3,1 -5,2 -4,3 0,2 0,2 0,2zm-30 -21c3,-1 6,-2 6,-4 1,-2 0,-5 -4,-6l-2 10zm74 19c2,-1 3,1 1,5l-1 -5zm-62 -66c-4,-2 -6,-2 -7,-1 -2,2 0,4 4,6l3 -6zm30 21c1,3 2,2 5,-2l-5 2zm-23 -33c-2,-6 -2,-11 1,-15l-5 2c-2,4 -1,9 4,13zm28 17c5,-7 6,-13 6,-16 -4,-2 -6,-1 -6,4 0,5 0,9 1,12zm-24 -37c0,0 0,-1 -1,-2 0,-2 1,-2 4,-3 6,-2 6,-5 -2,-9 1,3 0,6 -2,8 -3,2 -2,5 2,7zm50 -33c1,3 2,2 5,-1l-5 1zm-46 -46c-3,2 -6,5 -9,10 -3,6 -3,9 1,12l9 -22zm107 -57c1,3 2,3 5,1 2,-2 2,-5 -2,-6 1,2 0,5 -2,5 -2,1 -2,1 -2,1zm-100 119c0,0 3,-6 9,-17l28 -61c10,-25 20,-42 31,-52 10,-9 18,-18 22,-25 20,-35 30,-53 30,-53 2,-3 6,-8 12,-13 5,-5 8,-10 9,-17 11,-9 16,-14 16,-14l17 -13c0,0 4,-8 13,-24 2,-7 6,-13 13,-18 7,-5 11,-9 13,-13l42 -45c-4,-2 -13,2 -26,12 -6,5 -9,9 -11,15 -2,6 -5,10 -10,15 -3,1 -6,1 -8,0 -2,-2 -4,0 -6,4l-5 16 -26 31 -4 6 0 0c-4,8 -17,21 -38,40 -16,27 -24,40 -24,40 -18,18 -37,50 -58,94 -14,17 -24,31 -28,42l-16 34c1,3 1,7 -1,13 -2,6 0,7 6,6zm123 -141l0 0 26 -31 2 -10c-1,-3 0,-5 3,-6 7,-12 10,-17 10,-17l-24 35c-11,20 -18,30 -21,31l5 -2zm83 -110c0,0 1,-2 3,-6 -3,1 -4,2 -3,6zm-208 173c9,-2 18,-13 26,-31 8,-18 13,-29 15,-33l39 -59c9,-13 21,-28 34,-46 13,-18 28,-37 46,-58l24 -21c2,-4 3,-8 4,-13 0,-6 3,-10 8,-15 2,-4 7,-7 14,-11 7,-3 12,-7 14,-11l23 -26c19,-24 34,-42 45,-50 5,-5 13,-10 22,-17 10,-6 16,-13 16,-24l-75 64c-37,42 -58,68 -63,75 -19,15 -38,36 -58,64 -20,28 -36,49 -50,62l-49 72 -17 43c-9,16 -14,27 -16,34zm218 -190c-1,-3 -2,-5 -2,-5l2 5zm24 -17c-4,-2 -7,-2 -10,-2 -3,1 -6,3 -8,7l18 -6zm1 -15c14,-9 24,-22 29,-37l-1 -5c-4,-2 -11,6 -23,26 -8,6 -9,11 -5,16zm29 -37c-2,4 -3,5 -4,2 -1,-3 0,-6 3,-6l1 5zm-270 175c-4,-6 -1,-17 11,-32 13,-17 20,-27 21,-30 20,-35 38,-61 53,-78 2,-4 19,-26 50,-68l68 -76c57,-64 100,-105 128,-122 87,-75 134,-111 142,-107l-55 49c-6,2 -10,5 -13,9 -3,1 -4,2 -3,6l-15 19 -49 37c-2,1 -6,3 -10,6 -5,3 -9,8 -13,16 0,0 -1,2 -3,6 -2,4 -3,8 -2,11 -7,-5 -13,-6 -16,-6 -3,1 -8,5 -13,13 -6,8 -10,14 -13,17 -29,24 -46,40 -50,48 -21,19 -39,37 -51,55 -13,18 -26,34 -39,47 -25,29 -47,61 -68,96l-31 48c-13,23 -24,35 -30,37zm280 -231c2,-4 6,-9 12,-13 5,-5 9,-9 11,-13l50 -47 -12 8 -9 2c0,0 0,-1 -1,-2 0,-2 -2,-2 -5,-1 -3,1 -4,4 -2,10 0,0 -2,4 -7,12l-17 9c-6,5 -13,14 -21,30l0 0 -18 5c-3,1 -5,4 -6,9 0,5 0,9 1,12l24 -20zm81 -27c1,3 2,5 4,4 1,0 2,-2 1,-6l-5 2zm19 -20c4,2 7,0 8,-7l-8 7zm-70 -79l0 0 0 0zm100 61c2,-4 2,-6 -2,-5l2 5zm-17 -45c1,3 2,3 5,1 2,-2 4,-5 3,-8l-8 7zm-16 -20c2,-4 6,-7 12,-10 6,-3 8,-9 5,-19 -33,22 -53,41 -58,55l42 -26zm38 -5c4,2 6,2 6,1 -1,-2 -1,-2 -1,-2l-5 2zm-10 -22c-2,-6 -2,-11 1,-15 0,0 -2,2 -4,6 -2,4 -1,6 3,9zm49 2c1,3 2,5 4,4 2,0 2,-2 1,-6l-5 2zm-17 -29l-5 1 5 -1zm649 362l1 5 0 0 0 0 -1 -5zm6 -16c-2,4 -2,7 2,9l-2 -9z"/>
   </g>
   <g>
    <path id="1" class="fil0" d="M1879 3484c-33,12 -65,13 -97,4 -31,-9 -59,-26 -82,-49 -32,-37 -56,-81 -69,-133 -9,-33 -14,-58 -15,-74 -4,-25 -4,-53 -1,-83 4,-30 5,-53 4,-69 2,-75 6,-143 9,-203 2,-20 4,-41 7,-65 -1,-28 7,-46 26,-50 6,-2 13,-1 23,4 9,4 17,-2 22,-17l22 -64c15,-43 33,-71 56,-83 5,-5 16,-9 31,-13 21,-6 45,-4 70,6l22 9 14 16c21,20 40,48 56,83l26 96c1,16 4,31 9,46 6,14 9,30 10,46 0,49 1,82 2,97 2,9 2,18 0,27 -2,9 -3,17 -2,23l12 26 1 39c-2,7 -2,15 -3,23 -2,9 -1,17 2,27 -5,31 -8,49 -9,56 1,13 -3,30 -11,50 -8,20 -13,39 -14,55l-2 30 -9 22c-34,68 -70,108 -108,122zm-223 -214l0 0 0 0zm199 -131c3,-1 5,-2 4,-3 0,-2 0,-2 0,-2 -3,1 -5,2 -4,6zm-112 -107l0 0 2 5 -2 -5zm33 377c6,-2 13,-7 20,-16 7,-9 12,-14 14,-18 26,-27 44,-56 55,-88 10,-32 23,-78 36,-137 13,-49 20,-85 20,-108 6,-53 6,-93 3,-118 0,-35 -6,-86 -17,-152l-9 -51c-8,-28 -20,-53 -36,-79 -2,4 -6,6 -9,8 -5,1 -9,4 -10,7l-14 39c-4,-2 -7,-2 -8,-1 -1,2 -2,5 -1,8l-3 6c-2,4 -2,6 0,7 2,2 2,4 -1,8 2,6 1,13 -2,20 -3,8 -5,13 -8,17l-17 48 -21 84 -8 46c-2,14 -3,22 -2,25 -5,8 -6,15 -5,20 -2,4 -2,11 1,20 2,6 1,16 -2,30l-5 55c-6,24 -3,46 8,66 5,16 10,21 17,17 7,-3 13,-6 15,-6 17,-11 31,-21 41,-31l15 -18 18 -6c6,-2 9,1 9,6 -1,5 -4,8 -9,9 3,-1 6,-2 10,-5 5,-3 8,-5 11,-6 -16,37 -39,69 -67,96 -3,1 -6,3 -10,8 -4,4 -9,7 -15,9l-26 -8c-3,1 -9,1 -15,-1 -7,-2 -11,-3 -12,-6 -3,1 -5,4 -5,11 1,6 -1,11 -3,15l4 33c3,9 6,17 11,22 1,3 2,24 2,63 9,36 19,53 28,51zm139 -336l0 0 0 0zm-9 168l0 0c11,-9 18,-22 21,-39 4,-17 6,-29 8,-36 9,-16 15,-34 20,-54 -2,-9 -3,-20 -2,-31 2,-12 6,-17 13,-16 2,-13 4,-22 2,-25 -1,-3 -2,-6 -6,-8 -4,-2 -5,-6 -3,-9 3,-1 6,2 7,8l11 -51c-2,-6 -3,-17 -4,-33 -2,-17 -4,-25 -8,-28 -4,8 -6,13 -3,16 2,2 4,6 5,8 2,6 -1,9 -8,7 2,6 2,9 -2,10 -4,11 -6,27 -8,46 -2,13 -5,28 -6,42 -1,15 -2,30 -6,43l-16 87 -11 32c-2,4 -3,10 -5,18 -1,9 -1,14 0,17l-2 -5zm63 -149c-1,-2 -1,-6 1,-7 1,-2 -1,-4 -4,-6 -2,4 -2,9 3,13zm-252 -176c2,-4 4,-8 5,-11 1,-3 2,-7 4,-11 -2,1 -5,4 -5,9 0,5 -2,9 -4,13zm-6 -149l0 0c-4,-2 -6,-2 -4,3 1,5 3,6 6,6l-2 -9zm249 148l0 0 0 0zm-24 -38l0 0 0 0zm-222 -116c2,-4 4,-9 6,-16 2,-7 3,-13 6,-17 -2,4 -6,11 -9,22l0 0 -2 10zm258 160c4,-8 5,-19 1,-34 -8,-5 -13,-9 -13,-12 -1,-3 0,-6 3,-8 2,-2 3,-5 2,-8 2,-4 2,-8 -1,-12 -2,-5 -5,-8 -6,-11 1,3 0,6 -2,8 -2,2 -4,5 -2,8 2,9 2,16 0,20l0 0 -2 10c4,2 6,9 5,18 12,7 17,13 16,20zm-12 -61l-1 -4 1 4zm-234 -147l0 0 0 0zm6 -11l0 0 0 0 0 0zm217 117c3,-1 4,-4 2,-10l-2 10zm-54 -58l0 0 0 0zm-69 -75l0 0 0 0zm21 -30c-2,4 -3,5 -4,3 0,-2 0,-2 0,-2l4 -1z"/>
   </g>
   <g>
    <path id="2" class="fil0" d="M2742 3824c-40,10 -79,-3 -119,-42 -27,-26 -45,-58 -56,-97 -6,-21 -8,-37 -7,-46 -2,-20 -5,-59 -8,-120 -4,-51 -4,-129 1,-234 -1,-39 0,-75 3,-106 3,-31 5,-59 5,-82l10 -90 1 -88c-13,3 -21,16 -27,36 -6,21 -10,34 -13,38 -53,138 -99,237 -135,295 -5,8 -19,31 -43,68 -24,38 -51,61 -82,68 -24,6 -46,4 -65,-7 -29,-12 -54,-34 -76,-67 -17,-25 -29,-53 -37,-83 -3,-12 -6,-34 -8,-66 2,-89 9,-171 20,-250 24,-130 44,-226 60,-289 6,-28 19,-45 40,-50 15,-4 29,0 42,13 13,13 23,31 30,55 4,16 5,36 2,63l-19 127c-14,108 -21,165 -23,172 -1,20 -2,61 -1,123 0,13 -1,29 -2,49 -2,20 0,42 3,68 25,-17 46,-50 66,-101 22,-39 39,-76 53,-112l54 -127 39 -88c11,-32 27,-68 47,-108 20,-40 35,-71 46,-93 2,-4 5,-9 8,-17 3,-7 7,-13 12,-18 9,-6 25,-11 50,-17 15,-5 35,-2 61,8 12,6 20,22 27,46 8,53 9,100 4,141 -6,28 -6,73 -2,137 -2,76 -3,122 -2,138 -2,42 -2,69 -3,79 -1,10 -1,20 1,30 1,9 1,19 0,29 -2,27 -5,43 -6,50 -2,17 -3,38 -2,64l-5 55c-1,7 0,13 3,19 3,6 3,10 1,14l-9 22c6,18 7,31 6,38 -1,10 1,21 4,33 -1,10 -2,21 -3,33 -2,12 -2,20 -1,27 -1,7 0,13 3,19 3,5 4,12 2,19l-5 35c0,13 4,35 12,65 34,-58 59,-110 75,-157 18,-41 37,-94 54,-161l39 -127c6,-15 13,-35 20,-59 9,-25 14,-48 19,-68 7,-22 16,-46 27,-71 11,-26 18,-47 20,-64 4,-11 8,-22 11,-32 4,-11 7,-24 10,-37l20 -50c6,-15 13,-35 23,-62 9,-27 19,-50 30,-69 28,-69 44,-115 52,-136 23,-58 42,-101 58,-128 2,-4 5,-9 9,-14 3,-6 6,-10 8,-14 3,-14 7,-24 13,-28 0,0 1,0 4,-1 3,-1 5,-3 3,-6 5,-8 7,-12 7,-12 5,-8 9,-9 11,-3 3,6 5,9 5,9l9 -22 0 0c9,-2 15,1 17,10l-8 7c2,9 2,15 0,19 2,9 2,23 -2,40 -3,17 -6,31 -6,40 7,2 9,6 4,14 -5,7 -6,13 -6,16 -9,6 -11,14 -8,27l-12 28 13 -4c6,21 8,35 6,42 -9,16 -13,23 -13,23 -2,4 -2,6 0,8 2,1 2,2 -2,3l-11 13 -8 26c-12,30 -18,47 -20,54 -4,11 -9,17 -17,20 -7,2 -13,3 -16,4 9,8 13,17 12,26l-13 -11 9 31c3,-1 6,-6 10,-15 5,-9 10,-13 17,-12 -2,7 -6,24 -13,50 -8,27 -17,41 -29,45l-17 9 -7 11c-1,7 -2,14 -2,20 0,6 -1,13 -2,20 -16,-9 -24,-3 -25,17 3,-1 6,-4 7,-9 2,-5 5,-6 9,-5 4,2 7,9 9,17 5,-8 6,-17 7,-28 0,-12 2,-23 6,-34l4 14c6,-2 8,-6 6,-12 -1,20 -6,41 -15,63 -9,21 -15,38 -19,49 -47,162 -85,283 -112,362l-64 183c-5,17 -30,70 -75,156 -31,54 -61,86 -91,98l-9 2zm-88 -201c-3,1 -5,1 -6,-1 0,-2 -1,-2 -1,-2 -2,4 0,5 6,3zm-4 -13l0 0 -2 -5 2 5 -7 -28c-6,5 -6,16 -1,35l8 -7zm-2 -5l0 0 0 0zm-73 -73c-7,9 -9,15 -4,20l4 -20zm69 20c-2,4 -2,6 2,5l-2 -5zm-75 -78c-1,-2 -1,-6 1,-7 1,-2 1,-5 0,-8 -2,4 -2,9 -1,15zm1 -34l0 0 0 0zm75 24l0 0 0 0zm186 92c-9,2 -13,8 -10,17l10 -17zm-189 -105c6,-2 6,-5 -2,-9 -4,8 -3,11 2,9zm-71 -64c6,-5 7,-11 5,-20 -6,5 -7,12 -5,20zm72 15l0 0 0 0zm-68 -35c2,-1 3,-6 1,-15 -2,4 -2,9 -1,15zm71 10c3,-1 4,-2 3,-6 -1,-3 -2,-5 -6,-4 -5,8 -4,11 2,9zm-145 -103l0 0 0 0zm75 78c2,-4 3,-11 4,-20 1,-10 0,-18 -2,-24 2,-30 2,-47 0,-53 -1,7 -2,14 -3,23 -1,9 -2,17 -2,28l0 0 0 0c1,3 0,9 -2,20 -2,10 0,20 6,28zm-3 -48l0 0 0 0zm0 0l0 0 0 0zm-2 -5l2 5 -2 -5zm300 154c3,-1 3,-4 2,-10 -3,-2 -5,-2 -6,2 -1,4 1,6 5,9zm69 -68l-4 2c2,6 4,9 7,8l-3 -9zm14 -3c-2,6 0,11 4,13l-4 -13zm31 -68l0 0 0 0zm6 -16l0 0 0 0zm-13 -31c-2,4 -1,7 3,9l-3 -9zm-500 -300c2,-4 1,-9 -4,-13 -4,-6 -7,-5 -9,2 3,-1 6,3 8,13l5 -2zm0 0l-5 2 5 -2zm510 210c-6,2 -5,5 2,9l-2 -9zm-483 -275l1 4 -1 -4zm532 257c0,0 2,-1 4,-3 3,-2 2,-5 -2,-7l-2 10zm-6 -23c3,-1 5,-2 4,-3 0,-2 0,-2 0,-2 1,3 -1,5 -4,6zm-552 -184c11,4 14,-4 9,-22 9,-2 15,-6 17,-12 2,-5 4,-9 6,-13l12 -28 -3 -14c-2,-6 1,-9 6,-11 3,-2 5,-3 4,-6 -2,-3 0,-5 3,-6l4 -20c2,-4 6,-13 10,-25 5,-13 8,-23 9,-29 0,0 4,-5 11,-15 7,-10 5,-17 -6,-20 -4,-2 -6,2 -7,11 -1,10 -2,17 -4,21 -11,9 -16,13 -16,13 -6,5 -8,9 -6,14 2,5 2,9 4,16 -1,7 -8,12 -20,15 2,6 4,9 6,9 2,2 -3,17 -13,42l-12 28 -17 14c4,2 6,4 5,6 -2,2 -2,4 -1,7l-3 25zm38 -132c4,2 5,6 2,9l-2 -9zm528 312c9,-2 8,-7 -4,-13l4 13zm-57 -48c2,3 2,2 5,-1l-5 1zm-451 -264l0 0 0 0zm523 274c6,-12 6,-18 -1,-20 -2,-6 -2,-9 -2,-9 -5,5 -6,9 -3,13 2,4 5,9 6,15zm-519 -314c-1,-3 -1,-6 1,-6 2,-1 2,-1 2,-1 1,3 0,5 -3,6zm529 244l-2 -5 -8 7 9 -2zm-20 -20l0 0 0 0zm37 10c5,-5 7,-10 6,-17 0,0 -2,6 -6,17zm-17 -25l0 0 0 0 0 0zm0 0l0 0 0 0 0 0 0 0zm-21 -4c6,-5 7,-12 5,-21l-5 2c-2,4 -2,10 0,20zm50 2c-6,2 -9,5 -6,11l6 -11zm-12 -7c-5,-6 -9,-6 -15,-1 6,-2 11,-2 15,1zm3 -45c3,-1 6,-4 7,-9 2,-6 1,-9 -3,-12l-4 20zm39 -35l0 0 0 0zm-35 -39l0 0 0 0zm41 23c2,-4 2,-7 0,-9 -2,-2 -4,-6 -5,-9 -2,7 0,13 5,18zm13 -42c5,-8 3,-12 -3,-13l-7 11 0 0 0 0 0 0 0 0c-2,4 -2,7 2,9 4,2 7,0 8,-7zm-24 2c6,-2 6,-5 -2,-9l2 9zm16 -33c-9,2 -11,8 -6,16l6 -16zm-24 -18c6,-2 10,-5 12,-9 -6,2 -10,5 -12,9zm-9 -32l0 0 0 0zm68 17c4,2 4,4 1,5l-1 -5zm-2 -24c-2,-6 -6,-8 -12,-6 -3,1 -4,4 -2,10l14 -4zm-12 -6l0 0 0 0zm33 -4c-5,-6 -4,-9 2,-11l-2 11zm-51 -64c-2,-9 -5,-10 -6,-3l6 3zm13 -97c-1,-2 -1,-5 1,-5 2,-1 2,-1 2,-1 -6,2 -7,4 -3,6zm3 -6c0,0 1,-1 2,-3 2,-2 0,-2 -3,-2l2 5zm-2 -5l0 0 0 0zm69 20c1,-9 2,-17 4,-23 2,-6 4,-10 6,-13 4,2 6,9 4,20 -2,13 -6,17 -13,16l0 0zm-9 -31c0,0 1,0 2,-1 2,0 3,1 4,4l-1 15 -6 -18zm-11 -7c2,-1 4,-2 4,-3 -1,-2 -2,-2 -6,-1l2 4zm-2 -116c-3,1 -4,2 -4,3 1,2 2,2 6,2l-2 -5zm-10 -2l0 0 0 0z"/>
   </g>
   <g>
    <path id="3" class="fil0" d="M3896 3178c-4,-2 -10,-3 -18,-2 -8,0 -13,-1 -17,-2l-44 -18 -16 -6c-7,-1 -15,-4 -22,-9l-13 -11 -18 -15c-11,-17 -20,-38 -27,-63 -7,-26 -11,-42 -13,-48 -9,-60 -11,-141 -6,-243l2 -142c8,-80 11,-133 11,-159l0 0c2,-4 2,-9 2,-13 -2,-5 -1,-9 2,-13l0 -53c1,-46 0,-79 -3,-101 -6,-2 -13,4 -20,17 -6,13 -10,23 -11,30 -2,4 -20,26 -51,67 -78,122 -151,269 -219,439 -12,29 -33,71 -64,125 -31,64 -51,101 -57,113 -9,15 -17,25 -26,31l-9 3c-21,6 -44,2 -67,-12 -35,-10 -60,-21 -72,-35 -9,-10 -15,-18 -17,-24 -3,-13 -5,-24 -4,-33 0,-10 2,-19 2,-25 0,-13 1,-30 2,-50 2,-20 5,-43 10,-71 4,-24 6,-47 6,-70 0,-23 2,-46 6,-70l6 -138c-1,-17 -1,-39 -1,-68 0,-29 2,-54 7,-75 2,-4 3,-12 3,-23 1,-12 2,-20 4,-24 2,-3 9,-7 21,-10 13,-3 27,-2 43,6 17,7 30,17 40,31 13,16 24,35 29,56 9,33 9,89 1,166l-11 86c-6,38 -9,61 -10,71 -2,4 -2,7 0,10 2,2 4,6 5,9l-4 20 11 -13c0,0 6,-10 17,-29l24 -55c35,-88 87,-191 156,-311 78,-125 146,-213 208,-266 10,-9 17,-14 20,-15l8 -7 4 -1 53 -24c46,-12 79,4 101,46 6,24 11,56 15,94 2,32 1,72 -5,121 -5,49 -8,87 -9,117l-6 90c-5,57 -7,127 -7,211 2,6 2,42 0,108 -2,65 1,120 9,164 6,-2 9,2 9,9 1,8 2,13 2,17 11,-6 21,-17 31,-33 20,-21 31,-35 32,-42 2,-7 5,-13 9,-20 5,-6 7,-14 8,-24 0,0 2,-4 7,-11 -1,-3 -1,-6 1,-6 2,-1 2,-1 2,-1 0,0 5,-8 13,-23 7,-22 14,-38 21,-50l22 -45c5,-18 11,-37 19,-57 8,-20 15,-42 21,-67 10,-35 24,-78 43,-129 19,-50 33,-90 42,-118 8,-19 15,-37 20,-54 5,-18 12,-36 20,-54 7,-21 14,-41 20,-59 7,-18 12,-33 16,-43 6,-24 19,-53 39,-84 20,-31 39,-51 60,-60l0 0 13 -3c7,1 11,5 13,11 2,6 2,11 -1,15 -2,4 -2,7 -2,10l-8 7c-2,4 -3,9 -2,15l-12 28 -15 53c5,6 6,13 6,23l-8 27c-4,10 -8,20 -12,30 -4,9 -8,19 -11,30 -2,4 -6,12 -9,24 -3,12 -7,20 -13,25l0 0c4,2 2,9 -4,23 -6,13 -10,21 -13,25l-3 6c-2,4 -2,9 -1,15 -2,6 -7,11 -16,13 11,4 13,10 8,20 -5,9 -10,15 -13,16l0 0c4,2 5,5 2,9 -2,4 -2,7 -2,10l-11 32c-4,11 -9,24 -14,39 -6,14 -9,27 -10,36 9,-6 15,-16 19,-31 4,-16 7,-25 9,-29 2,-4 4,-9 6,-14 2,-6 3,-13 4,-23l1 -15c5,-8 6,-12 6,-12 13,-23 24,-46 30,-72 5,-20 8,-32 10,-36 2,-4 4,-8 6,-12 2,-4 5,-8 6,-12l5 -20c-2,7 9,-17 30,-72l24 -75c2,-7 4,-13 7,-19 3,-6 5,-12 7,-19 2,-17 6,-29 9,-37 4,13 4,25 1,39 -3,10 -17,50 -41,118 -37,108 -62,188 -78,241 -8,18 -20,50 -39,94 -17,43 -28,83 -31,120 -2,17 -8,37 -18,61 -9,24 -17,42 -19,56l-20 54c-1,10 -6,17 -13,23l-8 27 -6 -3 -6 16c2,6 2,11 -1,15 -2,4 -5,8 -7,12l-35 49 -51 82c-10,13 -24,17 -40,16l-15 -1 -8 7 -28 2zm-107 -89c-3,2 -4,2 -4,4 1,2 2,2 6,1l-2 -5zm-4 -13c-3,-2 -6,-2 -5,-1 0,2 1,2 1,2l4 -2zm76 9l0 0 0 0zm-94 -186c3,-1 2,-2 -2,-4 -1,-3 -2,-4 -2,-2 -2,2 0,4 4,6zm50 21c-1,-3 -1,-9 0,-17 1,-8 4,-11 7,-9l-8 -31c-2,7 -2,17 -2,30 1,13 2,22 3,28zm-49 -55l0 0 0 0zm1 -50c3,-1 3,-2 -1,-5 -2,4 -2,5 1,5zm50 21c3,-1 5,-3 4,-6l-5 2c0,0 -1,1 -2,3 -2,2 0,2 2,2zm-47 -51c1,3 0,7 -2,11 -2,3 -2,6 2,9l0 -20zm-27 285c2,-7 0,-21 -6,-42l-5 -37c-4,-39 -5,-66 -3,-83 -1,-17 -2,-49 -2,-97 3,-13 4,-28 4,-42 -1,-14 -2,-28 -2,-41 4,-34 7,-83 9,-149l3 -98 -3 -48c-1,-3 0,-8 2,-13 2,-6 1,-9 -3,-12 -1,-3 -2,-3 -2,1 -1,3 -1,5 -1,5 -9,-7 -14,-2 -16,14 3,13 3,25 1,39 6,21 6,46 0,73l5 38c4,12 4,20 2,24 2,6 2,10 -2,13 -2,2 -3,5 -2,8l-2 30 1 39 -9 21 6 23c2,6 2,15 2,27 0,11 -1,20 -2,28l-5 20c0,10 -2,16 -5,17l11 6 -9 2c6,9 7,15 6,20 -2,6 -2,11 -1,17l2 43 4 53 5 18c1,3 2,7 1,13 0,5 -2,6 -6,4l3 9c6,-2 9,2 10,12 1,10 2,15 2,15l2 24c2,6 4,9 6,8zm74 -254c4,-11 6,-28 8,-53 2,-24 0,-38 -4,-40 0,0 -1,0 -2,0 -2,1 -1,-1 2,-5 -1,10 -3,26 -7,48 -4,22 -2,39 4,50zm-312 -326l-5 1 5 -1zm318 168l2 5 -2 -5zm-47 -31c-1,-2 0,-5 3,-6 -3,1 -4,2 -4,4 1,1 1,2 1,2zm46 27c6,-2 6,-5 2,-10l-2 10zm-47 -46l-1 -5c6,-12 6,-18 0,-20 1,3 0,8 -2,15 -1,7 0,12 4,14l-2 -5zm56 24c0,0 0,-2 1,-6 1,-3 -1,-6 -5,-9l2 5c-2,4 -2,7 2,9zm265 134l0 0 0 0zm-5 -18c-7,-2 -9,1 -8,7l8 -7zm23 13c-2,1 -4,2 -4,3 1,2 1,2 1,2l3 -6zm-13 -12l0 0 0 0zm-323 -186c3,-1 4,-2 4,-3 -1,-2 -2,-2 -5,-2l2 5zm328 186l0 0 0 0zm-275 -171c-3,1 -4,5 -2,10l2 -10zm-285 -153c2,-1 6,-3 8,-7 2,-4 2,-9 1,-15 -3,1 -7,5 -11,13 -5,8 -6,13 -2,15l4 -6zm287 89c-4,7 -3,10 2,9l-2 -9zm311 195c5,-5 6,-12 4,-21l-4 21zm-413 -266c-2,-6 -2,-11 1,-15 -2,4 -2,9 -1,15zm402 224c2,-1 4,-2 4,-3 -1,-2 -1,-2 -1,-2 3,-1 4,-4 2,-10l-6 16zm-402 -244c4,2 6,4 4,4 -2,1 -2,1 -2,1l-2 -5zm443 233c-3,-12 -6,-17 -9,-17l-2 10c2,6 5,9 12,6zm-518 -349l0 0 0 0zm28 -42c3,-1 6,-2 9,-5 2,-2 2,-5 -2,-6 1,2 -1,6 -3,8 -2,2 -3,5 -2,8l-2 -5zm543 206c2,-4 2,-6 1,-5 -1,0 -2,0 -2,0 -2,4 -3,6 -2,6 2,-1 2,-1 2,-1z"/>
   </g>
   <path id="4" class="fil0" d="M4977 3074c-18,5 -45,-3 -79,-23 -33,-27 -63,-60 -90,-98 -15,-19 -28,-42 -42,-72 -13,-29 -22,-50 -28,-61l-33 -70c-15,-31 -23,-55 -24,-72 4,2 8,7 12,14 3,7 6,14 7,20 3,-1 2,-11 -6,-31 -6,-19 -10,-31 -11,-33 0,0 -2,-3 -5,-9 -3,-6 -4,-13 -3,-19l-2 -24c0,-13 -4,-35 -12,-64l-15 -55c-6,-21 -9,-42 -11,-61 -2,-19 -6,-38 -10,-56 -3,-12 -6,-17 -9,-15 -2,2 -4,9 -5,19 0,9 1,20 4,33 4,12 5,21 3,28 -6,-8 -9,-17 -9,-24 0,-8 -3,-16 -9,-24 -15,17 -26,42 -34,72 -7,12 -13,25 -19,39 -6,15 -13,30 -23,45 -7,9 -14,20 -20,35 -6,14 -13,26 -20,35 -8,21 -20,36 -38,44 -7,9 -19,18 -35,29 -13,13 -25,21 -38,24l-32 9c-3,-2 -9,-3 -15,-3 -6,0 -13,-1 -20,-2 -4,-2 -8,-6 -12,-9 -5,-4 -9,-6 -13,-9l-17 -10c-19,-11 -33,-27 -42,-47 -9,-20 -13,-32 -14,-35l-9 -31c-10,-40 -17,-83 -20,-131 -4,-100 10,-213 43,-339 33,-126 70,-217 110,-274 4,-8 12,-18 24,-31 11,-13 22,-22 34,-28 8,-6 20,-10 35,-14 24,-7 49,-7 74,-1 13,3 30,9 49,19 19,9 28,20 28,29 -1,-13 -1,-44 -1,-93 -6,-44 -6,-73 -4,-86l-6 -169 1 -88 0 -39c1,-20 1,-31 0,-34 -4,-16 -4,-27 1,-35l2 -45c-2,-6 -1,-16 2,-30l-6 -23c-2,-19 -1,-45 3,-79 2,-42 2,-71 2,-83 2,-14 3,-24 2,-30 2,-14 4,-22 3,-25l-8 -28c-5,-5 -5,-12 0,-20 2,-6 2,-15 1,-24 -1,-9 -1,-18 1,-24l9 -57c5,-53 11,-92 17,-116 13,-85 31,-162 56,-230 55,-171 129,-300 223,-387 21,-18 36,-29 45,-31 6,-2 10,-4 13,-8 24,-7 42,-9 51,-9l72 10c43,5 83,21 118,50 35,28 61,64 75,109 9,34 14,60 17,79 5,44 3,98 -6,163 -1,10 1,21 4,33l-6 31c0,0 -3,6 -10,17 0,0 2,1 4,4 2,2 2,6 0,9 -1,23 -4,42 -9,56l-7 46c-3,1 -5,3 -6,6 -1,3 -2,6 -2,6l4 13c-2,4 -5,7 -7,9 -3,2 -5,7 -6,13l6 23c1,3 -2,10 -9,22l-2 10c0,0 0,2 1,5 2,3 1,6 -2,10 2,6 1,16 -2,30l-18 44c-2,6 -2,15 -3,25 0,9 -1,20 -2,29 -2,7 -2,17 -4,31 -2,13 -4,24 -9,31l-11 32 -2 30c-16,27 -25,47 -28,61l-13 62c-2,4 -3,9 -1,15 1,2 0,4 -2,2 -2,-1 -4,1 -6,4l-4 21c-6,11 -10,27 -12,47 -2,4 -3,10 -2,20 1,9 0,17 -2,20 -2,13 -8,23 -17,28 -9,6 -14,9 -17,9 4,2 7,8 9,17 2,9 -2,26 -16,50 -13,25 -18,40 -17,46 -2,4 -3,8 -2,13 1,5 1,9 -2,13 1,3 -1,9 -6,16 0,0 -2,6 -6,17 -3,13 -6,25 -10,35 -4,9 -8,19 -12,30 -2,4 -5,13 -7,26 -3,14 -8,25 -16,34l-18 59c-5,7 -7,11 -7,11 1,3 -2,6 -8,7l-3 25c-4,8 -6,12 -6,12l1 5c1,3 -1,7 -6,11 -5,8 -7,17 -8,27 -9,-8 -12,-6 -11,3 1,9 2,17 4,24 -2,4 -5,5 -6,4 -2,-2 -4,0 -6,4 -3,1 -4,3 -3,6 1,3 1,5 1,5 2,6 2,11 -1,15l-13 4 -6 35c-5,8 -9,17 -13,25 -4,9 -9,21 -15,36 2,6 2,11 -1,15 -9,15 -13,23 -13,23l-17 44 -15 18c-2,4 -3,9 -4,13 0,5 -2,9 -4,13l-20 15 -15 19c-4,20 -6,37 -6,50 -1,7 -3,11 -6,12 -3,1 -6,3 -8,6l-8 7 4 14 -17 14 -4 20c1,3 1,6 0,7 -2,2 -2,5 -1,8l2 9 7 28c11,150 42,307 92,469l3 13 4 14c26,71 47,122 65,153 10,27 22,52 35,76 13,24 25,50 36,80 2,6 7,8 16,6 7,2 13,5 17,10 5,5 4,12 -4,20l-16 14zm-763 -533c-3,1 -4,5 -2,10l2 -10zm692 395c3,-1 4,-2 4,-3 -1,-2 -2,-2 -6,-2l2 5zm-133 -111c3,-1 3,-2 -1,-5l1 5zm28 -22c3,-1 3,-2 -1,-5 -3,1 -5,2 -4,3 0,2 2,2 5,2zm-89 -59c3,-1 4,-2 2,-3 -2,-2 -2,-2 -2,-2l1 5zm75 24c1,-10 -2,-20 -9,-32 3,-13 1,-23 -7,-27 -1,9 2,19 7,27l9 32zm-118 -168c-2,4 -4,3 -6,-2 -1,-4 0,-7 3,-8l2 9zm4 53c-10,-14 -17,-32 -22,-55 -5,-24 -8,-39 -10,-49 -14,-52 -21,-89 -20,-112 3,-1 6,6 11,21l15 74 30 114c1,3 1,5 -1,6 -2,0 -2,1 -2,1zm70 -68c-3,1 -4,2 -3,6l3 -6zm62 32c-4,-2 -5,-6 -2,-9 0,0 1,3 2,9zm-73 -54c2,6 2,9 2,9l-2 -9zm-9 -36c3,-1 4,-2 3,-6 -1,-3 -2,-5 -6,-4l2 9zm57 14c3,-1 5,-1 6,1 0,2 -2,2 -4,3l-2 -4zm-145 -88c-2,-6 -1,-9 2,-10l-2 10zm-336 -233c3,-1 4,-2 3,-6 0,0 -1,0 -2,1 -2,0 -2,2 -1,5zm327 182c1,3 0,4 -2,2 -2,-1 -2,-3 1,-7l2 5zm74 -15c-1,-3 -3,-5 -6,-4 0,0 1,1 1,2 1,2 2,2 6,2zm-392 139c60,-46 110,-105 153,-178 7,-9 29,-44 64,-105 20,-35 30,-52 30,-52 5,-8 10,-24 17,-48 5,5 9,4 13,-4l2 -15c6,-2 9,-4 7,-7 2,-7 2,-18 1,-35 -1,-16 -2,-27 -4,-33 -4,-28 -6,-54 -6,-79 0,-24 -1,-46 -3,-65 -2,1 -6,4 -9,10 -3,6 -6,9 -9,9 -2,4 -2,14 1,29 2,16 2,26 0,30 -4,-2 -6,-7 -8,-13 -5,-18 -6,-31 -1,-39 -5,5 -11,9 -18,15 -7,5 -13,13 -20,25l-28 42c2,-17 0,-24 -5,-19 0,-9 2,-28 7,-55 4,-28 3,-50 -2,-68 -9,-24 -20,-24 -30,-2l-29 37c-3,1 -3,6 -1,15l2 5 -10 17 -13 42 -18 44 -1 14c-11,32 -17,49 -17,49l2 5c-2,4 -6,16 -10,36 3,-1 4,1 2,5 -2,4 -5,6 -8,7l-6 31 1 4 -7 27 -5 20c-4,34 -11,78 -23,133l2 5 -3 6 4 -2c-2,14 -5,23 -7,27 -2,6 -2,14 -4,23 -1,9 -2,17 -2,28l2 24 0 54zm443 -167c-4,-2 -7,-6 -9,-13 6,-2 9,0 9,5 0,5 0,8 0,8zm-69 -94l-5 2c3,-1 3,1 1,5l4 -6zm-115 -208l4 13 2 9c6,21 5,42 -2,64l-4 -87zm15 20c-3,-2 -5,-5 -4,-6 2,-2 4,-2 8,1 1,2 -1,5 -4,6zm-12 -26c-3,-2 -6,-5 -6,-8 -2,-3 0,-6 3,-6l3 14zm-76 -68l-2 -5c-4,8 -6,12 -6,12l8 -7zm69 40c-3,1 -5,-2 -4,-6 0,-5 2,-8 5,-9l-1 15zm-2 -24c0,0 1,3 2,9l-2 -9zm89 -13c2,-4 2,-13 -2,-29 -2,4 -2,13 2,29zm-6 -96c0,0 0,-1 2,-1 2,-1 2,-2 2,-6 0,0 -1,0 -2,1 -2,0 -2,2 -1,6zm63 36c4,2 7,0 8,-7l-8 7zm-14 -35c-2,4 -1,9 4,14l-4 -14zm-50 -20c2,-4 2,-10 0,-20 2,6 2,11 1,14 -1,4 -1,6 -1,6zm-97 -126c6,9 5,13 -2,15l2 -15zm91 49c2,-3 2,-7 2,-10 -1,-3 -2,-4 -6,-3l4 13zm-88 -54c-2,-9 -4,-27 -5,-53 2,9 4,27 5,53zm13 -8c-3,1 -5,-2 -5,-6 1,-6 2,-8 6,-9l-1 15zm-4 -33c-1,-3 -1,-5 1,-6 2,-1 2,1 3,4l-4 2zm255 131c-1,-3 -1,-5 1,-5 2,-1 2,-1 2,-1l-3 6zm-267 -177c5,5 7,9 6,13 -1,4 -5,6 -10,8l4 -20zm227 119c-6,2 -7,9 -4,20l4 -20zm40 57c3,-1 4,-2 4,-3 -1,-2 -1,-2 -1,-2l12 -13c1,-7 2,-12 3,-13 2,-2 -1,-6 -6,-11l9 -2c-2,-6 -6,-9 -12,-7l2 9 -14 19 2 24zm-265 -188c-4,-2 -5,-11 -3,-28 4,2 6,6 5,11 0,5 -1,11 -2,17zm80 28c3,-1 4,-2 3,-6l-3 6zm-8 -13l-2 -5c0,0 -1,1 -2,1 -2,1 -2,2 -1,6l5 -2zm218 123c13,-13 19,-23 17,-29 -3,-13 -13,-11 -28,2l10 2 -4 20c3,-1 5,1 6,4zm-34 -54c0,0 -1,0 -2,0 -2,1 -2,-1 -3,-4 2,-1 5,1 6,4zm-259 -127c-3,-38 -4,-59 -2,-63 2,9 3,20 3,31 0,12 -1,23 -2,32zm293 127c1,3 2,5 3,4 2,0 2,-2 1,-5l-4 1zm-26 -42c2,-4 2,-6 -2,-5l2 5zm-251 -153c-3,1 -5,1 -6,-1 0,-2 1,-3 4,-4l2 5zm-22 -9c2,-4 3,-12 4,-23 0,-12 1,-20 3,-24 -2,7 1,20 6,38 -5,8 -9,11 -13,9zm322 201c-2,4 -4,5 -5,2 -1,-3 1,-5 4,-6 6,-2 7,-8 4,-20 17,-20 25,-34 24,-40 10,-9 16,-20 15,-34l-17 24 -9 22c-10,9 -14,19 -12,28 -12,6 -17,19 -14,38l11 -13zm-17 -83c5,-7 7,-9 8,-6 2,9 0,11 -8,6zm69 21c3,-1 4,-2 4,-4 -1,-2 -1,-2 -1,-2 -4,-2 -5,0 -3,6zm-371 -199c-4,-15 -6,-34 -6,-57 1,-24 4,-37 9,-42l2 24c0,13 1,26 1,39 0,13 -1,26 -4,40l-2 -5zm2 -123c-5,-5 -6,-12 -6,-20 1,-8 3,-14 5,-18 2,9 3,24 2,43l-2 -5zm384 195c3,-1 4,0 2,2 -1,2 -3,4 -6,5l3 -6zm-17 9c-5,5 -9,2 -11,-6 0,-10 4,-24 11,-40 7,-17 14,-24 20,-22 -1,20 -2,30 -2,30 -4,-2 -6,-2 -6,4 0,5 0,9 1,12 -6,2 -9,5 -9,9 0,6 -2,9 -4,13zm-367 -278c2,6 1,9 -2,11l2 -11zm399 235c-4,-6 -3,-13 5,-21 2,6 0,13 -5,21zm-400 -239c-2,-9 -3,-23 -1,-39 2,-17 3,-28 5,-35 4,15 6,33 5,53l-8 26 -1 -4zm377 186c0,0 1,-1 2,-2 2,-2 2,-5 1,-8 2,9 2,13 -2,10zm11 -32c0,0 1,-1 2,-2 2,-2 2,-2 3,2l-5 1zm-386 -238c1,-46 3,-79 8,-99 2,9 2,23 1,41 -2,18 -2,35 -1,51l-8 7zm453 177c-2,-9 -1,-15 5,-17l-5 17zm-446 -296c-1,-3 -1,-6 0,-9 1,-4 1,-6 1,-6l-1 15zm167 897c0,-13 4,-22 12,-28 6,-5 11,-13 16,-24 6,-11 10,-20 14,-28l18 -44 44 -109c4,-8 7,-17 9,-27 2,-10 6,-20 10,-28 2,-4 7,-9 14,-18 8,-9 13,-18 17,-29l-1 -5c2,-4 3,-7 2,-10 -1,-3 1,-5 4,-6l10 -17c0,0 3,-6 9,-17 -2,-9 -1,-15 6,-17l-1 -5 9 17c9,-16 13,-23 13,-23l0 19c-6,12 -11,21 -12,28 0,0 1,-2 4,-4 2,-2 2,-2 0,2 8,-9 10,-17 8,-27 6,-2 9,-6 11,-13 2,-7 3,-12 6,-16 2,-4 6,-9 9,-15 3,-6 6,-12 7,-19 16,-27 21,-46 18,-58 12,-6 18,-20 20,-42 2,-22 5,-35 7,-39 8,-18 15,-36 20,-54 5,-17 10,-35 15,-53l-2 -9c-2,7 -3,14 -6,22 -3,7 -6,14 -6,21l-9 6c2,3 1,5 -2,3 -2,-1 -2,-2 -2,-2l-6 -3c1,3 1,5 -1,5 -2,1 -2,1 -2,1 0,0 -6,9 -17,29 -1,23 -2,36 -4,40 10,1 13,6 11,14 -2,9 -6,16 -12,20 -2,-9 -2,-16 0,-20 -6,5 -10,12 -14,20 -4,9 -5,19 -2,28 -3,1 -5,3 -6,6 -1,4 1,6 5,9l1 -15 11 -13c4,2 5,6 3,11 -2,6 -2,10 -2,13 -6,2 -10,5 -14,11 -3,6 -6,10 -8,14 -2,4 -8,7 -17,9 -1,-3 1,-9 6,-16l-2 -9c4,-20 9,-37 17,-49 1,-9 6,-22 14,-38 1,-9 3,-19 7,-26 2,-4 2,-8 -1,-13 -2,-4 -3,-9 -2,-17 13,-13 20,-23 21,-30 2,-7 2,-15 4,-23 1,-9 2,-17 3,-23 13,-24 20,-35 20,-35l27 -8c1,3 0,6 -2,9 -2,2 -3,6 -2,13 7,-9 14,-27 20,-54 2,-7 3,-16 6,-26 2,-10 2,-22 -2,-34l4 -1c13,-4 20,-22 24,-56 2,-7 2,-17 -1,-31 -2,-14 0,-27 6,-39l1 20c4,2 7,-1 9,-10 2,-9 3,-14 2,-17 -1,-3 -2,-4 -6,-3 -3,1 -6,-2 -7,-8 3,-1 5,-4 5,-9 1,-6 0,-9 -1,-13 9,-6 13,-4 13,4 1,8 1,12 1,12 4,-10 2,-17 -3,-21 -6,-3 -9,-6 -10,-9 7,-11 10,-19 9,-22 -1,-2 -3,-5 -6,-6 -4,-1 -7,0 -10,1 -1,-3 0,-10 2,-20 2,-10 6,-18 11,-23 2,-3 5,-8 9,-12 4,-4 6,-11 6,-21 -9,-1 -13,-5 -10,-12 3,-7 4,-13 3,-16l6 -35c1,-7 5,-11 11,-13 0,0 3,-1 9,-2 8,-9 11,-16 9,-22 -2,-6 -6,-10 -11,-12 -5,-2 -7,-6 -5,-13 -2,-6 1,-15 7,-26l6 -36c3,-1 7,3 13,12 1,-10 0,-17 -2,-19 -2,-3 -4,-6 -5,-9 -1,-3 0,-6 2,-10 2,-4 3,-9 2,-15 -6,-9 -10,-7 -14,4 -3,10 -5,19 -3,25l-25 123c-5,8 -7,18 -9,31 -2,13 -2,24 -4,31 -12,29 -17,47 -15,53 -4,46 -16,87 -36,122l-6 -3 -4 20c2,-4 5,-7 7,-9 2,-2 3,0 2,7 2,9 -1,21 -9,37 0,13 -2,23 -6,31 -2,4 -6,17 -9,37 -5,8 -9,19 -11,32l-7 12c5,-21 6,-35 4,-40 -2,4 -6,18 -13,42l9 -2 -6 16c1,3 -1,9 -6,17 1,3 2,6 5,9 2,2 2,6 1,9 -2,4 -5,7 -8,9 -2,2 -6,6 -12,10l5 -20c2,-4 4,-9 6,-14 2,-6 2,-11 1,-17l3 -6c-3,1 -4,2 -3,6 -2,4 -5,9 -6,14 -2,6 -2,11 0,17 -3,1 -6,5 -9,12 -2,7 -3,14 -2,20 5,-5 9,-4 10,2 2,6 2,11 -1,15 1,3 0,5 -2,6 -2,0 -4,-1 -8,-3l1 20c-2,4 -5,10 -7,19 -3,9 -6,13 -10,10 -2,-6 0,-16 5,-28 5,-13 6,-22 5,-28l-24 75c4,2 7,2 9,-2 2,-4 3,-7 2,-10l2 5c2,9 -1,21 -10,37 -5,2 -10,4 -12,8 -6,2 -9,6 -7,12 2,6 2,9 2,9l-2 -9 16 -14 -6 31 9 -2 -29 57 -6 12 3 13 -9 17c-6,5 -9,10 -8,17 0,6 2,12 7,17l-5 2c-9,2 -16,13 -20,32 -5,19 -13,27 -24,23 1,3 2,8 2,15 0,6 -1,11 -3,15 -4,8 -9,19 -13,33 -4,14 -8,27 -12,37 1,3 -1,14 -6,31 -5,17 -13,20 -23,6 -2,4 -4,7 -6,11 -2,4 -2,9 -1,15 1,3 1,6 0,10 -1,3 -2,9 -3,15 -6,-8 -10,-9 -13,-2 -3,8 -6,13 -8,17 11,-6 16,-5 13,6 -2,10 -1,18 4,24 -5,5 -11,13 -17,24 -7,12 -13,12 -20,0l-8 27c3,-1 6,-2 9,-5 2,-2 5,-2 6,1 -9,16 -15,31 -18,44 -4,-2 -5,-6 -3,-13 1,-7 2,-12 1,-15 -5,5 -10,15 -14,31 -4,16 -9,26 -13,30 6,2 12,-3 16,-13 3,-11 7,-17 9,-17 -1,6 -4,15 -8,24 -4,9 -4,17 1,22 -9,2 -16,8 -20,15 -4,8 -4,16 2,24l7 -12zm-170 -925c6,-2 7,2 3,13l-3 -13zm434 235c-2,4 -4,4 -5,1l5 -1zm26 7c3,-1 5,-2 4,-5 -1,-3 -3,-4 -6,-3l2 9zm-457 -248c-3,-12 -4,-26 -2,-41 2,-15 6,-25 12,-30 -4,20 -6,35 -2,45 2,6 -2,15 -8,26zm485 207c4,2 6,-2 6,-11 -3,1 -4,2 -3,6 1,3 0,5 -3,6zm-476 -282c-2,-6 -2,-11 -1,-14 1,-3 1,-7 0,-9 9,10 9,18 1,24zm1 -35c0,0 2,-2 3,-6l-3 6zm491 249c-2,-9 -1,-14 5,-16l-5 16zm-34 19c6,-5 9,-13 12,-28 3,-13 7,-24 11,-32 9,-15 13,-23 13,-23 -1,9 -4,23 -9,39 -5,17 -6,28 0,37 -4,-2 -8,-2 -12,3 -4,4 -9,6 -16,4zm4 -113c-5,8 -6,15 -5,20l5 -20zm32 31c-8,-5 -7,-9 1,-15l-1 15zm-355 807c9,-16 20,-41 35,-78 14,-36 28,-63 40,-79 6,-15 11,-28 16,-41 5,-13 9,-24 13,-35 6,-12 13,-28 19,-46 6,-20 11,-35 15,-46 7,-21 17,-45 28,-71 11,-26 22,-55 33,-87 23,-58 39,-103 46,-134 4,-11 8,-22 13,-33 6,-11 9,-25 11,-42 -1,-13 2,-24 8,-34 6,-9 9,-18 10,-25 4,-10 7,-23 9,-36 3,-14 7,-30 12,-47 6,-15 10,-28 12,-40 2,-12 4,-23 8,-34 24,-81 46,-189 69,-325 17,-60 27,-116 32,-170l8 -80c1,-10 1,-21 1,-35 -1,-13 1,-26 4,-40 4,-34 4,-69 0,-108 -18,-67 -39,-113 -61,-139 -6,2 -10,-1 -12,-7l-31 -26c-31,-20 -64,-18 -96,6 -21,19 -41,47 -61,85 -86,163 -147,366 -182,610 -16,124 -29,312 -40,562l2 5c6,21 7,34 5,38l-9 2 2 9 3 -6c3,13 3,25 1,39l-1 34c-1,10 1,23 6,38 1,3 2,8 5,13 3,6 2,12 -2,20l-12 -6 5 18 5 -2 0 20 -1 15c1,3 2,6 5,9 2,2 5,7 6,13l0 53 6 57 -4 40c-2,7 0,20 5,38 -8,42 -7,69 2,83 -2,-6 1,-10 7,-12 9,-2 10,2 4,14 4,15 5,30 2,43zm326 -858c9,-2 9,-8 1,-15 -3,1 -3,6 -1,15zm5 -20c6,-2 8,-6 6,-12 -6,2 -9,6 -6,12zm42 52c-1,-3 0,-9 1,-17 1,-9 2,-15 5,-19 -3,1 -6,6 -9,15 -2,9 -6,14 -13,16 -2,-6 2,-25 9,-57 1,-20 6,-36 17,-48 2,5 2,13 0,19 -2,7 -2,13 -1,15 -2,7 -1,11 3,12 3,1 6,4 7,10 -1,7 -4,16 -7,26 -4,11 -8,20 -13,28zm8 -46c2,-4 2,-10 -1,-20 -3,11 -3,17 1,20zm31 6c3,-1 4,-2 3,-6 -3,1 -4,2 -4,3 1,2 1,2 1,2zm-60 -76c2,-7 4,-14 7,-21 2,-8 3,-14 2,-20 -2,7 -4,14 -6,21 -3,7 -4,14 -2,20zm33 -4c3,-1 5,-1 6,1 0,2 -1,2 -4,3l-2 -4zm5 -21c-5,-18 -1,-32 13,-42 2,9 2,15 0,17 -2,2 -4,5 -3,8 1,3 1,7 -1,13 -2,5 -5,9 -8,9l-1 -5zm-31 -25c2,-4 4,-6 6,-7 2,0 2,2 -1,6 10,-9 12,-23 4,-40 -2,20 -4,34 -9,42zm79 -36c-6,2 -9,6 -10,10 0,5 1,10 2,17l8 -27zm7 -46c-1,-3 -1,-5 1,-6 2,0 2,0 2,0l3 -26c-3,1 -6,4 -10,8 -4,5 -2,12 4,24zm14 -38l1 -35c5,-5 6,-13 2,-25 -4,8 -6,16 -2,25 -6,5 -9,17 -10,37l9 -2zm22 -26c2,-4 2,-7 -2,-9 -4,8 -3,11 2,9zm-39 -53c-5,-6 -4,-9 2,-11l-2 11zm27 7c2,-4 2,-8 2,-13 -2,-5 -1,-9 2,-13 -1,-3 -1,-5 1,-6 2,0 2,0 2,0 -4,-2 -5,-1 -3,6 -5,8 -6,17 -3,25zm-17 -24c6,-2 9,-6 6,-12 -2,-6 -2,-11 -3,-14 -7,12 -8,20 -3,26zm5 -36c3,-1 5,-2 4,-5 -1,-3 -3,-4 -6,-3l2 9zm28 -27c-6,5 -7,10 -6,17l6 -17zm-24 -86c5,5 6,10 4,14l-4 -14zm36 6c2,-1 4,-2 4,-4 -1,-2 -2,-2 -6,-1 -2,4 -2,6 -1,6 2,-1 2,-1 2,-1zm-31 32c2,-4 4,-9 6,-13 2,-6 5,-11 10,-16 1,-9 2,-21 3,-35 1,-13 0,-26 -3,-39 -3,1 -5,3 -6,6 -1,4 -2,6 -6,7l-4 -14c1,-9 1,-15 1,-15 -3,1 -3,6 -1,15 -11,6 -9,16 7,28 -2,4 -6,6 -10,6 -6,-1 -8,4 -9,14l7 8c-6,2 -9,6 -7,12 -2,13 -3,22 -2,25l11 -13c-2,6 -1,15 2,24zm31 -67c9,-16 13,-28 9,-37 -11,6 -14,19 -9,37zm-25 -96c4,2 5,2 6,-2 1,-3 3,-6 6,-6l-2 -5 10 2 -14 -35 -7 46zm23 -60c6,-28 7,-47 4,-59 -2,3 -6,8 -9,12 -4,4 -6,11 -6,21 -3,14 1,23 12,26zm-12 -61c2,-4 9,-7 17,-9 3,-13 1,-19 -6,-15 -7,3 -11,12 -11,24z"/>
   <g>
    <path class="fil0" d="M3073 5709c-18,5 -32,2 -42,-8 -3,-2 -5,-5 -6,-10l-2 -11 -4 -31c1,-5 2,-11 3,-17 1,-7 2,-12 3,-17l9 -68c0,-20 0,-45 1,-74 0,-29 1,-54 4,-74l9 -101c2,-52 6,-109 13,-172 4,-64 15,-162 32,-293l42 -267c14,-62 22,-109 25,-138 2,-12 5,-24 8,-35 4,-11 5,-20 6,-27 3,-8 7,-29 11,-61 25,-119 45,-208 59,-268l38 -160 23 -101 23 -71 17 -63c12,-23 20,-45 24,-68 2,-3 5,-11 11,-24 5,-14 13,-23 24,-28l14 -3c16,-4 36,-5 58,-3 4,-1 8,1 12,5l5 6c1,7 5,15 11,24 6,10 9,18 8,26 2,19 3,42 2,69 -1,27 -1,46 0,59 -1,37 -1,61 0,73 2,41 2,77 0,106 -1,8 -1,23 -2,45 -1,23 0,40 4,54l-1 85c4,16 5,27 4,32l-12 10c7,1 12,5 14,15 1,2 0,5 -1,10 -2,4 -2,7 -1,10l8 2 -2 8c-2,10 -3,19 -1,26 1,2 0,5 -1,9 -2,4 -7,4 -14,1 7,8 11,14 11,16 2,9 2,21 1,36l1 18c1,2 1,5 0,8 -1,2 -4,6 -11,9 6,4 9,7 11,8 2,2 2,6 1,11l-6 5c1,5 3,8 6,10 -3,8 -2,14 1,18 1,2 4,7 11,15 1,5 1,7 0,7 -1,1 -2,2 -4,5l5 21 -4 15 2 40c-4,16 -2,28 5,36 2,-1 4,2 5,6l2 7 -7 17c-1,5 -1,11 1,18 1,5 1,8 -1,11 -2,1 -4,2 -3,4l7 -5c1,4 1,9 -1,12 -2,4 -3,9 -4,14 1,2 1,5 0,7 -1,2 1,5 4,7 1,2 2,4 5,6 2,2 4,4 5,6 1,2 0,5 -2,7 -2,2 -3,4 -2,6 -1,5 -1,11 1,18 -1,8 1,20 5,36 1,5 2,17 1,36l8 17c1,2 0,4 -2,6 -2,2 -3,4 -2,6l9 23c1,15 4,29 10,42l6 24c8,30 15,45 22,46 7,1 16,-7 26,-23 10,-16 16,-29 18,-39 20,-49 53,-139 101,-270 47,-132 83,-232 105,-301 49,-161 90,-290 122,-389 -2,3 -2,7 -1,11l26 -91c1,-5 6,-15 14,-31 8,-15 12,-28 10,-37l4 -1 2 -19c4,-6 5,-10 4,-12 2,-1 4,-2 4,-3 -1,-1 -1,-2 -1,-2l7 -16c13,-57 34,-109 62,-154 15,-38 32,-65 49,-82 16,-14 36,-21 61,-22 14,-1 30,6 46,21l6 10 1 4c3,2 5,6 7,13l2 10c2,10 4,26 5,51 0,10 1,19 5,28 4,9 5,18 5,29 2,7 3,17 4,31 1,15 2,27 1,37 2,17 2,39 2,65 -1,27 1,50 6,68l-7 17c8,5 13,17 12,37 -1,25 -2,49 -3,72 0,23 -1,46 -3,69l-5 -7c-2,13 -1,33 2,60 3,27 4,49 3,64l-16 100 5 -24 4 14c3,14 4,38 3,72 -1,25 -1,75 0,150l-17 -11 2 26c4,-6 5,-9 5,-9l-1 147 2 81c-1,5 -3,17 -5,34 -2,18 -1,32 2,44 0,20 0,73 2,160 2,88 11,170 27,247l-1 11c2,7 8,20 20,37 12,18 17,32 14,42 -1,5 -5,9 -13,10 -9,2 -22,-2 -39,-12l-43 -23c-12,-12 -24,-27 -33,-47 -17,-37 -30,-76 -39,-115 -9,-39 -15,-78 -18,-116 1,-27 0,-67 -3,-121l2 -19 -2 -10c4,-6 5,-9 5,-9 1,-5 1,-9 -1,-12 -2,-3 -2,-7 -1,-12 1,-7 1,-14 2,-19 1,-5 2,-10 4,-15l-3 -43 0 -48c3,-27 5,-45 5,-53 -2,-29 -2,-50 -1,-65 3,-18 4,-39 3,-63 2,-30 3,-52 2,-67l5 -27 0 -30c1,-7 2,-15 3,-24 2,-9 2,-17 3,-25 -3,-53 -3,-93 0,-121l7 -61c-2,-7 -3,-16 -3,-27 -1,-11 0,-19 1,-24l3 -4c5,4 7,12 2,25l2 55c-5,40 -7,70 -7,90 0,31 -3,100 -9,204 1,34 -1,72 -5,115l-4 89c2,40 2,75 -1,103l0 48 -5 41c-2,13 -2,29 0,46 2,18 3,33 3,45l4 62c-1,7 -1,16 1,27 1,11 4,18 7,23 -1,-2 1,-11 5,-27l-3 -10 -2 -7c-3,-14 -4,-26 -1,-36 -2,-7 -1,-23 2,-48 2,-3 2,-7 1,-11l-2 -7c-1,-2 0,-5 1,-9 2,-4 1,-7 -2,-8l1 -41c1,2 1,3 -1,2 -1,-1 -2,-1 -2,-1l3 -1c1,-20 2,-34 4,-45 1,-15 1,-35 0,-59 3,-28 3,-62 1,-103l4 -45c0,-20 1,-34 4,-45 -1,-43 0,-77 1,-99 1,-5 1,-14 -2,-25l5 -23 4 -60c-1,-5 -2,-12 -2,-21 0,-10 1,-18 1,-26 -4,-16 -5,-29 -2,-40 2,-10 4,-25 4,-45l-2 -51c1,-20 2,-34 4,-45 2,-20 0,-33 -6,-39 -4,5 -7,4 -9,-5 -3,-2 -4,-5 -2,-11 -2,-7 -2,-18 -1,-33 1,-8 1,-16 2,-26 1,-10 2,-21 1,-33 4,-23 5,-44 3,-64 -3,-11 -4,-21 -4,-29l2 -8 -4 -14 4 -59c-2,-12 -4,-21 -3,-29 4,-6 5,-10 4,-12l-3 -14c1,-8 1,-15 2,-23 1,-7 -1,-17 -3,-29l-4 -32c-1,-12 -4,-22 -11,-30 1,2 0,9 -2,19 1,5 1,7 -2,8l-4 1 -14 18c-1,5 -3,12 -4,21 -2,9 -4,18 -6,29 -68,212 -123,389 -164,531 -74,238 -131,415 -171,533 -8,29 -25,71 -50,126 -7,11 -16,29 -27,52 -11,24 -22,40 -32,50l-32 19c-46,11 -84,9 -112,-6 -8,-3 -20,-13 -36,-28 -4,-4 -8,-9 -15,-15 -6,-6 -11,-11 -14,-15 -20,-29 -31,-61 -34,-95l-8 -31c-8,-32 -12,-57 -14,-74 -1,-14 -2,-29 -2,-43 0,-15 -1,-30 -2,-48 -2,-21 -3,-48 -1,-80 1,-17 0,-34 -2,-51 -1,-17 -2,-33 -1,-51 2,-20 3,-37 2,-52 -1,-14 -1,-26 -1,-36l0 -106c-2,-58 -2,-129 -1,-213 -1,-17 -5,-56 -10,-118 2,-42 -1,-81 -9,-115 -5,11 -8,25 -10,41 -2,17 -4,29 -4,36 -1,5 -4,10 -7,16 -4,6 -7,14 -9,24 -1,5 -2,11 -2,19 -1,8 -2,14 -3,19 -2,3 -3,5 -5,8 -2,3 -2,5 -2,8l-3 19 -5 9 -2 23c-2,3 -4,5 -5,7 -2,2 -4,7 -4,14 1,2 2,4 5,4 2,1 3,2 1,5 -1,7 -5,12 -15,14 8,1 11,4 9,9 -2,3 -3,4 -5,3 -1,-1 -3,0 -5,3 -2,3 -2,6 -1,10 1,4 1,7 -1,10 -5,9 -8,14 -7,17l-1 26c-1,5 -3,9 -6,12 -3,4 -5,8 -6,12 1,2 0,12 -2,29 -2,16 -2,26 1,27 -3,-2 -5,-1 -7,3 -1,4 -1,7 2,9 -3,8 -4,23 -4,45l-10 7 -24 141c0,0 2,-3 5,-8 -5,20 -17,80 -37,178l-54 335c-16,94 -25,149 -26,164 -5,21 -8,46 -9,77 -1,31 -3,55 -6,73 -1,44 -4,83 -8,118 -4,34 -7,62 -9,84 -1,-5 -3,-8 -6,-10l2 11c-2,42 -10,106 -23,192l10 -21c-2,8 -5,20 -6,34l-2 -10c-3,18 -3,43 0,77 0,10 -2,19 -5,27 -3,8 -10,15 -21,20l-7 1zm54 -335c2,-1 3,-3 2,-8 -2,1 -3,3 -2,8zm-68 -68c4,-1 5,-5 1,-11 -2,3 -2,7 -1,11zm38 -39c4,-6 2,-11 -4,-14l4 14zm1 -26c0,-2 0,-7 1,-13 1,-6 1,-9 -2,-8l2 7 1 4c-4,6 -4,9 -1,11zm5 -42c1,-5 1,-12 1,-20 -1,-8 1,-15 4,-21 -7,12 -9,26 -5,42zm0 -44c7,-4 10,-10 10,-19 1,-8 1,-14 0,-17 -7,12 -10,24 -10,36zm7 -46c7,-4 9,-11 8,-20 -1,-10 -2,-15 -3,-18 -4,6 -5,12 -4,20 1,7 0,13 -1,18zm8 -57c0,0 1,-1 1,-2 1,-1 0,-2 -2,-1l1 4zm-2 -21c-4,5 -3,8 2,7l-2 -7zm2 -5c6,-16 7,-31 4,-45 -5,21 -6,36 -4,45zm12 -72c-4,6 -4,12 -3,19l3 -19zm72 -381c-2,1 -3,1 -3,2 1,1 2,2 4,1l-1 -4zm257 135l1 4 -1 -4zm25 27c-1,-2 1,-6 3,-10 3,-4 1,-8 -5,-12l2 22zm24 -6c2,-3 1,-5 -2,-7l2 7zm-29 -45l1 4 -1 -4zm25 30c5,1 5,-7 1,-26 -1,-2 -1,-8 -1,-17 1,-8 -1,-14 -4,-15 -7,4 -5,23 3,58zm-294 -211l0 0 0 0zm244 143c2,-1 4,-3 4,-7 0,-4 -1,-7 -4,-8 -2,3 -2,8 0,15zm43 -3c6,3 7,2 5,-3 -2,-6 -4,-8 -4,-8l-1 11zm-23 -35c-2,1 -3,3 -2,6 1,4 2,5 5,5l-2 -11zm0 -15c-2,1 -4,2 -3,3 0,1 2,1 4,1l-1 -4zm-248 -145c2,-1 2,-2 1,-4 -1,-2 -2,-3 -2,-3l2 7zm228 154c-2,-7 -3,-20 -3,-40 -4,-7 -5,-13 -5,-21l1 33 5 21 1 18 1 -11zm-213 -150c1,2 2,2 4,-1 -2,1 -4,1 -4,1zm986 586c2,-1 3,-2 2,-4 -1,-2 -1,-4 -1,-4l-2 8zm82 64c1,-5 1,-10 -1,-12 -2,-3 -4,-6 -4,-8 -4,-7 -6,-12 -6,-18 0,-6 -2,-11 -5,-15l4 17c4,17 8,29 13,37zm-1075 -681l0 0 1 4 -1 -4zm238 166c0,-20 -1,-33 -2,-40 -1,-2 -1,-8 -1,-17 1,-8 -1,-14 -4,-15l0 15c-1,7 -1,18 1,33 1,14 3,23 6,24zm724 400l1 4 -1 -4zm-698 -428c-2,1 -3,2 -2,4 1,2 1,2 3,-1l-1 -4zm717 416c0,10 2,24 6,42l-6 -42zm72 55l2 7 -2 -7zm-40 -30c-2,3 -2,4 -1,4 1,0 2,0 2,0l-1 -4zm40 30c1,-5 1,-10 -1,-12 -2,-3 -4,-7 -5,-12 -3,8 -1,18 8,31l-2 -7zm-103 -89l-3 1c0,0 0,4 1,13 1,8 4,12 8,11l-6 -24zm-690 -397c1,-5 1,-12 -1,-22l1 22zm-46 -22c-2,-7 -2,-14 -1,-20 1,-7 1,-14 -2,-24 -2,11 -4,18 -4,25 1,6 3,12 6,18zm758 432c2,-3 3,-2 4,1 1,4 1,5 1,5l-5 -6zm74 48c2,0 2,-5 1,-14 -2,3 -2,8 -1,14zm-1043 -641c2,2 4,1 5,-3 0,-4 -1,-5 -4,-5l-1 8zm230 146c4,-4 4,-12 1,-26 -4,6 -4,15 -1,26zm26 -14c-2,3 -2,7 -1,11 1,5 2,8 2,10l-1 -21zm718 467c0,-10 -2,-24 -6,-42 -1,-2 1,-8 3,-17 3,-9 1,-17 -5,-23 -5,21 -4,46 4,76l5 6zm-720 -474c4,-5 4,-15 0,-29 -4,5 -4,15 0,29zm-44 -44c-2,-7 -2,-12 0,-15l-4 1c1,2 1,5 0,8 -1,2 1,5 4,7zm-200 -128c2,-1 4,-2 5,-5 1,-2 -1,-4 -3,-3l-2 8zm244 128c2,-1 3,-3 2,-8l-4 -3 2 11zm42 8l4 -1c1,5 1,7 -2,8l-2 -7zm-43 -26l0 0 0 0zm-42 -23c2,-1 3,-4 2,-11 -1,-7 -2,-13 -6,-17l4 29zm-186 -145c1,5 1,7 -2,8 -4,4 -3,7 3,11l-1 -18zm209 118c0,-10 -2,-18 -4,-25 -3,-7 -4,-14 -4,-21 -3,-12 -4,-22 -3,-30 0,-9 1,-17 1,-24 -4,26 -3,42 2,51 -2,10 -3,24 -1,40 2,17 3,29 5,36l-2 37c-2,20 -1,31 5,35l1 -99zm-19 -3c-2,-7 -4,-11 -7,-13 3,1 4,4 4,6 -1,3 1,5 4,7zm-175 -115c0,0 2,-3 5,-8l-11 2 5 6zm-6 -27c-2,1 -4,2 -3,4 1,2 2,3 5,2l-2 -7zm220 195c1,-17 1,-46 0,-88 0,-42 -2,-65 -6,-72 -2,3 -3,8 -4,15 -1,8 0,14 1,18l-2 37c1,21 2,40 4,53 2,14 5,26 7,35zm772 388c2,-1 3,-3 2,-8l-2 8zm-818 -468c1,-5 1,-9 -1,-12 -2,-4 -3,-6 -4,-8 4,-4 5,-18 5,-45 -1,-27 -2,-46 -5,-58l-2 67 3 29c-2,12 -1,22 3,29zm734 379l1 4 -1 -4zm-870 -529l0 0 0 0zm-33 -14c2,-3 4,-7 5,-12 1,-5 0,-8 -3,-10l2 7c-4,4 -5,9 -4,16zm245 131c-3,-2 -4,-3 -1,-4 3,2 4,2 2,3 -1,0 -1,1 -1,1zm742 428c-2,1 -4,1 -3,2 0,1 1,1 4,1l-1 -3zm-801 -473l0 -29c-8,-1 -9,9 -4,30l4 -1zm16 -26c2,-1 4,-2 5,-4 1,-3 -1,-4 -3,-4l-2 8zm-21 -10c6,-6 8,-15 5,-27 -2,3 -2,8 -2,14 1,6 -1,10 -2,13zm-14 -15c4,-3 5,-7 3,-9 -2,-4 -3,-5 -3,-5l-1 -4c5,-9 5,-23 1,-44 -4,5 -4,15 0,29 -4,15 -4,27 1,33zm20 -23l0 0c-1,-2 0,-4 1,-5 1,-2 0,-3 -3,-5 2,7 1,11 -1,11l3 -1zm802 491c6,-4 5,-10 -5,-18 1,2 1,5 1,10 0,4 1,7 4,8zm-810 -526c3,2 4,2 4,-1 -1,-2 -1,-4 -1,-4l-3 4zm809 492c2,-1 3,-2 2,-6 -1,-4 -2,-5 -5,-4l2 10zm-779 -430c1,-15 1,-26 -1,-33l3 -19c-2,-7 -1,-11 2,-14 3,-2 6,-3 8,-4 -2,-2 -5,-2 -8,-2 -2,1 -5,0 -8,-2l-2 -22c-2,8 -4,18 -2,29 1,11 2,18 4,23 2,7 2,15 1,24 -2,9 -1,15 3,20zm-43 -85c-1,-7 -1,-12 1,-15l0 0 1 4 -4 1c1,2 1,4 -1,5 -1,2 1,3 3,5zm13 8c2,-3 4,-7 6,-14 2,-7 1,-9 -4,-8l0 0 -2 22zm2 -22l0 0 0 0zm-117 -75c2,-3 3,-3 4,-1l-4 1zm100 64c4,-4 4,-8 0,-15l0 15zm826 485c-2,3 -1,4 1,4l-1 -4zm-1 -4l0 0 1 4 -1 -4zm-787 -476c2,-1 4,-2 3,-4 -1,-2 -1,-4 -1,-4l-2 8zm774 468c2,-1 3,-1 3,-2 0,-1 -2,-2 -4,-1l1 4zm-770 -483l-4 1 4 -1zm757 457l0 0 0 0zm-747 -449c2,-1 3,-2 3,-4 -2,1 -4,2 -3,4zm-49 -50c-3,-2 -4,-1 -4,2 1,4 2,5 5,4l-1 -7zm18 14c-3,-2 -4,-1 -4,1 1,2 1,3 1,3l2 -4zm23 20c-1,-2 -2,-5 -4,-7 -2,-2 -1,-5 0,-8l0 0c-1,3 -1,8 4,14zm-28 -26c2,-1 4,-2 5,-5 1,-3 -1,-4 -3,-3l-2 8zm805 475l-8 -5c-2,3 -2,7 -1,11l10 -6zm-817 -494c-1,-5 -1,-8 1,-11 -2,3 -2,7 -1,11zm53 23l1 4 -1 -4zm757 458c-1,-2 -1,-4 -1,-4l1 4zm15 4c3,2 4,2 4,-1 -1,-2 -2,-4 -5,-3l1 4zm-34 -21c5,-1 6,-4 4,-7 -2,-3 -3,-5 -3,-5l-1 11zm20 -9l0 15 0 -15zm18 14c-1,-5 -1,-8 1,-11 -2,-2 -4,-1 -5,3 0,4 1,7 4,8zm-817 -509l0 0 0 0zm784 466c2,-1 3,-2 2,-4 -1,-2 -2,-4 -4,-3l2 7zm-801 -520c-2,3 -3,6 -4,8 -1,2 1,4 2,3l1 -11zm415 229c1,5 1,7 -2,8l2 -8zm417 269c2,-10 4,-17 3,-19 -2,3 -2,6 -1,10 1,4 0,7 -2,10l0 0zm-791 -493l-4 1 4 -1zm759 468c5,-1 5,-4 2,-8l-2 8zm-799 -499l-1 -3c-2,3 -2,4 -2,4l4 -1zm819 505c2,-3 2,-9 -1,-18 -2,2 -2,9 1,18zm-786 -491c3,-8 2,-15 -2,-21 3,11 4,18 2,21zm-104 -81c1,2 1,4 1,4l-1 -4zm906 557c5,-8 5,-19 -1,-33 -1,15 -1,26 1,33zm-37 -46c12,-8 13,-15 2,-23l-2 23zm-860 -550c2,-1 2,-2 -1,-4 -3,-2 -4,-2 -2,0 2,2 2,4 2,4zm860 520c2,-1 4,-2 4,-5 1,-3 0,-4 -2,-3l-2 8zm24 -6l-4 1 4 -1zm-18 -29c-2,-2 -4,0 -4,6 0,7 2,10 5,12l-1 -18zm31 21c1,2 1,4 2,3 1,0 1,-1 1,-4l-3 1zm-931 -511c7,-4 10,-12 11,-24 1,-12 1,-20 0,-23 2,-2 4,-6 5,-10 2,-4 2,-10 3,-17l1 -11c4,-4 5,-8 4,-15 2,-3 4,-6 5,-9 2,-2 2,-5 2,-8 -4,4 -7,12 -9,24 -1,5 -2,10 -4,14 -1,4 -3,8 -5,11 -6,16 -10,39 -13,69zm901 474c2,2 3,-1 2,-8l-2 8zm-9 -9c-1,-2 -2,-3 -3,-3 -1,1 -1,2 -1,4l4 -1zm44 30c1,-8 -1,-13 -5,-17 1,2 1,5 0,7 -1,3 1,6 5,10zm-75 553c-1,-5 -1,-9 1,-13 2,-4 3,-7 5,-10 1,-8 -1,-17 -3,-29 2,-11 2,-20 0,-30 2,-10 2,-19 1,-26 -1,-15 -2,-34 -4,-60 -1,-25 1,-47 6,-65 2,-11 4,-21 4,-30 0,-10 1,-18 1,-26 0,-10 1,-33 1,-70l0 -59c2,-10 4,-17 3,-19l-4 -14c-1,-2 0,-4 2,-6 2,-2 2,-4 2,-6 2,-3 2,-8 1,-15 -3,-33 -2,-77 5,-129 2,-11 3,-18 2,-23l-3 -10c-1,-5 1,-10 4,-16l4 -30c-1,-2 1,-3 4,-2 2,1 3,-1 2,-6l-8 -2 -2 -11 2 -52c-1,-12 -1,-24 0,-37 1,-12 1,-24 1,-36 0,-10 1,-19 2,-27 2,-8 3,-17 3,-26 -2,-10 -4,-21 -3,-34 0,-13 1,-24 1,-31l3 -78 0 -62c-2,-29 -3,-52 -2,-70 2,-30 1,-55 -3,-76 -2,15 -1,30 0,46 1,15 1,31 0,46 0,10 0,20 1,31 0,11 1,23 1,34l-3 96c-1,8 -1,21 -2,41 -1,20 1,38 7,53 -4,4 -7,15 -10,36l0 44c-2,20 -4,50 -4,89l-9 189c2,27 0,58 -3,94 -4,36 -5,63 -6,80l-1 44c2,10 4,24 3,43 -2,12 -4,41 -5,86 1,14 1,33 0,55 -1,23 -1,41 0,55l-4 45 6 28zm-811 -1119c-3,-2 -4,-1 -4,1l4 -1zm857 507c-2,1 -4,2 -5,5 -1,2 1,5 4,7l1 -11zm14 15c4,-6 5,-11 4,-16 -1,-4 -2,-8 -2,-10 -2,3 -3,7 -3,12 0,5 1,10 2,14zm-17 -26c8,1 9,-9 4,-30 -5,9 -7,19 -4,30l0 0zm-885 -562l-3 1 0 0 3 -1zm17 -8c-2,1 -3,2 -2,5 1,2 2,3 4,2l-2 -7zm-16 -7c-1,-2 -2,-3 -5,-2 1,2 2,3 5,2zm2 -4l0 0 0 0zm884 544c4,-6 4,-15 1,-30 0,0 0,10 -1,30zm-863 -549c-4,5 -4,11 0,14l0 -14zm900 551c-1,-5 -3,-8 -6,-10 -2,3 -2,8 0,15l6 -5zm-35 -39c2,-8 1,-15 -5,-21 2,7 2,13 1,18l5 2zm31 7c5,-1 8,-3 10,-6 0,0 -3,-2 -9,-5l-1 11zm-15 -15c2,-1 4,-1 5,-3 1,-1 0,-3 -3,-5l-1 11 -1 -4zm18 -1c4,-6 5,-10 4,-12 -4,3 -5,7 -4,12zm-20 -21c8,-5 10,-20 4,-45 -1,8 -1,15 -2,23 -1,8 -1,15 -2,23zm-28 -41c4,-1 6,-5 4,-12l-4 12zm13 -7c4,-1 4,-4 -2,-7 0,0 1,2 2,7zm35 10c2,-1 4,-1 3,-2 0,-1 -1,-2 -4,-1 -2,1 -2,2 1,4zm-35 -24c5,4 8,2 6,-5l-6 5zm33 17c7,-4 8,-8 5,-12l-2 -7c-4,4 -5,10 -3,19zm-31 -69c-1,-2 -1,-5 -2,-9 -1,-4 0,-7 2,-10l2 11 -2 8zm-1 -18c-1,-5 -2,-7 -2,-7 5,3 6,5 2,7zm-281 -188c0,0 -1,-1 -1,-2 -1,-1 1,-2 3,-2 0,0 0,1 1,2 0,1 -1,2 -3,2zm2 -8c2,-1 3,0 2,1 -1,1 -1,2 -1,2l-1 -4zm232 141c3,2 4,2 4,-1 -1,-2 -1,-4 -1,-4 -2,1 -4,2 -3,4zm36 131c-1,-2 -1,-8 1,-18 1,-10 4,-16 9,-17 1,4 1,12 -2,22 8,-9 10,-20 7,-31l-7 2c1,-5 3,-9 6,-12 3,-4 3,-7 -1,-11 4,-4 5,-10 2,-19l-8 -17c0,-2 1,-5 2,-8 2,-3 4,-4 7,-2l2 -8c-2,1 -4,1 -3,2 0,1 1,2 1,2l-4 1c-2,-10 -3,-17 -2,-22l6 10 0 -48 -9 9c1,-5 3,-9 5,-12 2,-3 3,-7 4,-12l2 -22c-2,-7 -6,-11 -14,-11l-1 118 -4 59c-2,3 -2,7 -1,11 1,5 1,8 -1,11 -3,8 -2,15 2,21zm-29 -147c-2,1 -2,1 1,3l-1 -3zm74 48c5,-1 7,-4 5,-8 -4,5 -5,8 -5,8zm-36 -57c1,2 0,4 -2,4l2 -4zm-1 -33c-1,-2 0,-4 1,-4 1,0 2,1 2,3l-4 1zm4 -12c-2,1 -4,0 -4,-2 -1,-2 1,-3 4,-1l1 4zm31 -132c-2,1 -2,2 1,4l-1 -4zm20 -9c-2,1 -4,0 -4,-2 0,0 1,0 2,-1 1,0 2,1 2,3zm-45 114c2,-3 2,-8 2,-15 -1,-7 0,-12 2,-15 -2,-9 -3,-17 -2,-23 1,-7 2,-12 4,-17 -5,-38 -7,-67 -6,-87 -4,-36 -4,-61 0,-77l-1 -33c-1,-2 -1,-7 -2,-14 -1,-8 -5,-12 -13,-15 4,4 5,8 5,12 -1,4 0,8 1,12 -1,5 1,8 6,10 -4,6 -5,12 -4,21 1,8 2,15 3,20 -4,4 -5,10 -2,19 3,12 3,21 0,30 1,4 2,10 2,17 1,8 -1,16 -3,27 1,5 1,10 0,15 -1,5 -1,10 0,14 1,2 2,6 6,10 4,4 5,9 4,14 -2,3 -4,5 -5,8 -2,3 -2,7 -1,11 -1,5 -1,10 1,12 2,4 2,7 0,9 -1,-4 -4,-5 -8,-2 5,1 9,5 11,13l-7 2c3,11 6,19 9,23zm24 -160c5,-1 7,-3 6,-5l-6 -10 0 15zm-157 -134c2,-1 2,-3 1,-8 1,2 1,4 -1,4 -1,1 -2,1 -2,1l1 4zm104 37c-2,12 -1,22 4,29l-4 -29zm-4 -17c2,-1 4,-2 3,-3 0,-1 0,-2 0,-2l-3 5zm11 -43c4,-6 3,-9 -2,-10l0 0c-2,1 -2,2 -1,5 2,3 3,5 3,5zm20 -27c0,0 -1,-2 -2,-7 -2,3 -1,5 2,7zm-9 -5c-1,-2 -1,-7 1,-13 1,-6 -3,-12 -12,-17l0 15c1,2 2,5 6,8 3,3 5,5 5,8zm-31 -40c4,7 8,10 14,11l-14 -11zm-72 -70c2,-1 3,-2 2,-4 -12,10 -22,25 -30,44l27 -40z"/>
   </g>
   <path id="1" class="fil0" d="M4572 4877c-14,3 -24,-2 -33,-14 -4,-7 -7,-14 -9,-23 -2,-10 -5,-17 -9,-24l-1 -7c-2,-7 -2,-14 -1,-20 1,-6 1,-12 -1,-16 -2,-7 -2,-15 -2,-24 1,-8 0,-16 -2,-23 -1,-14 -2,-29 -3,-43 -1,-14 -1,-29 0,-44 2,-10 1,-25 -3,-43 -2,-9 -3,-17 -2,-25 1,-7 2,-14 2,-19 -1,-14 -2,-29 -3,-43 -1,-14 -2,-29 -3,-43l-4 -14c-4,-14 -4,-29 0,-44 -4,-14 -1,-22 9,-24 2,-1 6,1 11,3 6,2 10,4 12,6 14,4 22,13 25,27 1,2 2,4 5,5 3,1 4,2 5,4l13 8c7,8 9,18 8,31 4,4 5,8 5,13 0,5 1,10 2,14 5,40 6,71 3,91 2,7 2,18 1,33 1,2 1,6 -1,11 -1,5 0,10 4,14 -2,0 -3,4 -2,9 2,6 1,10 -1,13 -1,5 0,14 3,26 -1,5 -3,18 -5,38l4 17 2 7c-1,8 -2,17 -2,29 -1,11 -1,20 1,27 1,2 0,11 -1,26 2,10 2,17 -2,23 1,2 -1,7 -4,12 -3,-2 -5,-2 -8,0 -2,2 -4,3 -6,4l0 0 -3 4 -4 1zm1 -631c-1,-2 -2,-4 -4,-3 -2,1 -4,0 -5,-2l-10 2c-28,6 -51,-4 -70,-30l-11 -30c-4,-17 -2,-30 8,-43 7,-1 14,-1 23,2 17,-1 34,3 51,14 3,4 7,7 11,10 4,3 8,5 11,7 0,0 0,1 1,2 0,1 2,2 4,1 4,4 7,13 11,27 4,14 1,26 -7,34l-12 11z"/>
   <g>
    <path id="2" class="fil0" d="M4893 5080c-10,0 -19,-3 -28,-8 -14,-8 -24,-22 -28,-40 -4,-16 -4,-34 0,-55 4,-21 6,-34 7,-42l14 -77c5,-40 10,-71 14,-92l20 -82 8 -42c1,-5 3,-10 5,-14 3,-4 6,-10 8,-18l1 -15c-3,-11 -12,-27 -27,-48l-37 -61c-20,-32 -53,-79 -97,-141 -3,-2 -5,-4 -7,-8 -2,-3 -3,-6 -2,-8 1,-3 4,-5 8,-6l11 -2c14,-4 23,-5 29,-4l9 9c3,2 6,2 10,1 4,-1 7,0 10,1 11,5 19,13 24,24l54 71c4,6 9,18 18,36 8,18 17,27 27,30 7,-21 16,-50 25,-87 9,-36 19,-65 28,-87 8,-17 19,-27 33,-30 5,-1 17,-2 36,-1 13,2 24,6 33,14 9,8 12,18 11,30 1,2 -4,11 -12,25 -8,7 -15,20 -20,38l-24 83 -20 67c-1,5 -3,19 -6,42 -3,23 -10,34 -20,34 31,58 50,95 57,111 4,9 9,20 15,33 5,13 12,24 18,32 8,10 21,26 41,45 5,-9 11,-18 18,-28 7,-11 14,-21 21,-33 5,-9 10,-20 14,-34 4,-15 6,-24 7,-30 3,-8 9,-30 17,-66 1,-5 3,-11 5,-18 2,-7 4,-12 5,-17l0 0 3 -1c2,-10 3,-19 1,-26l4 2c5,-11 9,-29 13,-55l4 -15 7 -31c-1,-2 0,-4 2,-4 9,-44 23,-85 43,-125 3,-8 6,-12 8,-12 2,-3 5,-5 10,-6 2,-11 2,-19 1,-26l0 0 4 -1c-2,0 -2,-4 1,-11 3,-8 6,-14 10,-17l-1 -18c2,-3 4,-4 7,-4 2,1 4,0 3,-2 6,-7 11,-14 17,-23 5,-8 11,-17 19,-27 27,-21 46,-28 57,-21 3,2 6,7 9,14 4,8 5,15 4,23 -1,7 -9,19 -24,35 1,2 -1,4 -3,5 1,4 0,10 -4,15l-14 33 -9 24c-5,8 -7,15 -6,20l-1 26 -11 28c-4,5 -8,23 -13,50 -5,18 -10,43 -15,74 -5,30 -8,56 -11,76 -5,38 -17,83 -33,137 -13,47 -28,83 -44,106 -16,26 -37,42 -65,49 -14,3 -27,3 -40,-1 -5,-1 -10,-4 -13,-8 -4,-4 -8,-7 -13,-8 -2,1 -7,1 -12,1 -6,0 -12,-2 -18,-5 -8,-5 -24,-20 -47,-44l-43 -59c-1,-2 -5,-10 -11,-23 -7,-13 -14,-21 -23,-24 -2,3 -1,12 4,29l-13 21c-3,8 -4,15 -4,21 1,7 1,11 1,13l-5 8 0 15c-2,1 -4,3 -5,7 -2,4 -2,6 -2,6l-7 17 -10 36 -13 80 -5 71c-1,8 -2,14 -5,18 -3,4 -9,7 -18,7zm-37 -119c2,-3 2,-5 2,-8 -1,-2 0,-5 2,-8 1,-8 1,-14 2,-19l1 -11c-5,11 -7,26 -7,46zm4 -56c4,-4 6,-7 5,-10 -1,-4 -1,-7 1,-10l0 0c0,0 -1,2 -4,7 -2,4 -3,8 -2,13zm47 -4c2,-1 3,-2 2,-4 -2,1 -3,2 -2,4zm51 -60l0 0 0 0zm-87 32c5,-11 8,-22 10,-33 2,-12 5,-21 8,-30 -1,-2 -1,-7 -1,-12 -1,-6 1,-13 4,-21l11 -32 13 -55 4 -15 1 -11c-10,27 -22,68 -36,124 -13,56 -17,84 -12,86zm205 -31c2,-1 3,-2 1,-2 -1,-1 -2,-1 -2,-1 -2,1 -2,2 1,4l0 0zm0 0l0 0 0 0zm-17 -26c0,0 0,-1 0,-2 -1,-1 -2,-1 -4,-1 -2,3 -1,4 4,2zm-10 -12l-4 1 4 -1zm-7 -28c-4,1 -6,4 -5,9l7 -2 5 6 -7 -13zm-20 -10c-1,-5 -3,-7 -5,-6l5 6zm-24 -53c2,-3 4,-2 6,1 2,3 4,5 7,7 2,-3 1,-7 -4,-14 -4,-7 -6,-11 -7,-13 -10,12 -8,26 2,40l-5 -21zm-75 -51c6,-16 8,-28 6,-34 -5,8 -8,20 -10,35l4 -1zm310 112c0,0 0,1 0,2 1,1 1,0 3,-3 0,0 0,-1 0,-2 -1,-1 -1,0 -3,3zm-275 -256c3,2 4,1 3,-2 -1,-4 -1,-5 -1,-5 -2,1 -3,3 -2,8zm9 -24c0,0 0,-1 1,-4 1,-3 -1,-5 -4,-7 1,2 1,5 0,7 -1,3 1,4 3,3zm20 -67l1 4 -1 -4zm429 -152c2,-1 3,-4 2,-8l-2 8zm4 -12c1,2 2,4 4,3l-4 -3zm7 -2c-1,-4 1,-10 7,-16 6,-7 10,-12 11,-17 -2,3 -6,8 -13,14 -7,7 -8,13 -4,19z"/>
   </g>
   <g>
    <path class="fil1" d="M540 4865c8,-2 1853,-686 1265,-41 0,0 -160,149 -168,198 60,52 876,-85 979,-93l384 -6c-476,50 -267,20 -707,95 -1350,231 -403,-213 -435,-382 -118,-70 -1184,290 -1287,324 -26,9 -54,-6 -63,-32 -9,-26 6,-54 32,-63z"/>
   </g>
   <path class="fil2" d="M555 4913c2474,-802 675,141 1125,149 420,8 763,-138 1320,-138"/>
   <path class="fil0" d="M1688 2167l74 -20 127 136 44 -9 -136 -141c46,-25 77,-67 66,-123 -13,-65 -65,-99 -158,-81 -2,0 -101,20 -101,20l75 375 38 -8 -30 -150zm-7 -34l-31 -156c0,0 56,-11 58,-12 65,-13 107,6 117,55 10,49 -28,85 -77,97l-67 16z"/>
   <path id="1" class="fil0" d="M2070 1855l-45 9 -68 403 39 -8 18 -115 170 -34 61 100 39 -8 -215 -347zm94 223l-143 29 33 -209 110 181zm-44 -382l-48 10 -49 121 28 -6 70 -126z"/>
   <path id="2" class="fil0" d="M2604 1938c-22,-110 -112,-170 -235,-145 -15,3 -102,20 -102,20l75 375c0,0 84,-17 99,-20 128,-25 187,-112 164,-230zm-38 11c20,103 -35,165 -131,184l-62 13 -61 -304 61 -12c103,-20 174,25 193,120z"/>
   <polygon id="3" class="fil0" points="2756,2103 2681,1728 2644,1735 2718,2110 "/>
   <path id="4" class="fil0" d="M3165 1824c-23,-116 -118,-178 -223,-157 -107,21 -169,118 -146,233 23,116 119,178 223,158 107,-21 168,-119 146,-234zm-39 10c19,95 -29,172 -112,189 -85,17 -160,-37 -179,-133 -19,-95 29,-172 113,-188 85,-17 159,36 179,133z"/>
  </g>
 </g>
</svg>
