<?xml version="1.0" encoding="UTF-8"?>
<!DOCTYPE svg PUBLIC "-//W3C//DTD SVG 1.1//EN" "http://www.w3.org/Graphics/SVG/1.1/DTD/svg11.dtd">
<!-- Creator: CorelDRAW 2017 -->
<svg xmlns="http://www.w3.org/2000/svg" xml:space="preserve" width="30mm" height="30mm" version="1.1" style="shape-rendering:geometricPrecision; text-rendering:geometricPrecision; image-rendering:optimizeQuality; fill-rule:evenodd; clip-rule:evenodd"
viewBox="0 0 3000 3000"
 xmlns:xlink="http://www.w3.org/1999/xlink">
 <defs>
  <style type="text/css">
   <![CDATA[
    .fil0 {fill:#FEFEFE}
   ]]>
  </style>
 </defs>
 <g id="Camada_x0020_1">
  <metadata id="CorelCorpID_0Corel-Layer"/>
  <path class="fil0" d="M2714 228l-2428 0c-130,0 -237,106 -237,237l0 1420c0,130 106,237 237,237l138 0 0 584c0,27 16,52 42,62 8,3 17,5 26,5 18,0 35,-7 48,-20l632 -632 1543 0c130,0 237,-106 237,-237l0 -1420c0,-130 -106,-237 -237,-237zm-356 1265l-746 0c-37,0 -67,30 -67,67 0,37 30,67 67,67l746 0c37,0 67,-30 67,-67 0,-37 -30,-67 -67,-67zm-1105 0l-611 0c-37,0 -67,30 -67,67 0,37 30,67 67,67l611 0c37,0 67,-30 67,-67 0,-37 -30,-67 -67,-67zm1105 -386l-244 0c-37,0 -67,30 -67,67 0,37 30,67 67,67l244 0c37,0 67,-30 67,-67 0,-37 -30,-67 -67,-67zm0 -386l-929 0c-37,0 -67,30 -67,67 0,37 30,67 67,67l929 0c37,0 67,-30 67,-67 0,-37 -30,-67 -67,-67zm-621 386l-1094 0c-37,0 -67,30 -67,67 0,37 30,67 67,67l1094 0c37,0 67,-30 67,-67 0,-37 -30,-67 -67,-67zm-701 -386l-393 0c-37,0 -67,30 -67,67 0,37 30,67 67,67l393 0c37,0 67,-30 67,-67 0,-37 -30,-67 -67,-67zm1679 1265l-1571 0c-17,0 -33,7 -45,18 0,0 0,0 0,0 -1,1 -2,1 -2,2l-536 536 0 -489c0,-2 0,-4 0,-6 -3,-34 -32,-61 -67,-61l-206 0c-56,0 -102,-46 -102,-102l0 -1420c0,-56 46,-102 102,-102l2428 0c56,0 102,46 102,102l0 1420 0 0c0,56 -46,102 -102,102z"/>
 </g>
</svg>
