<?xml version="1.0" encoding="UTF-8"?>
<!DOCTYPE svg PUBLIC "-//W3C//DTD SVG 1.1//EN" "http://www.w3.org/Graphics/SVG/1.1/DTD/svg11.dtd">
<!-- Creator: CorelDRAW 2017 -->
<svg xmlns="http://www.w3.org/2000/svg" xml:space="preserve" width="30mm" height="30mm" version="1.1" style="shape-rendering:geometricPrecision; text-rendering:geometricPrecision; image-rendering:optimizeQuality; fill-rule:evenodd; clip-rule:evenodd"
viewBox="0 0 3000 3000"
 xmlns:xlink="http://www.w3.org/1999/xlink">
 <defs>
  <style type="text/css">
   <![CDATA[
    .fil0 {fill:#FEFEFE}
   ]]>
  </style>
 </defs>
 <g id="Camada_x0020_1">
  <metadata id="CorelCorpID_0Corel-Layer"/>
  <path class="fil0" d="M2165 1493c0,-266 -148,-488 -370,-591l0 325 370 370c0,-44 0,-74 0,-103zm370 0c0,133 -30,266 -74,384l222 222c103,-177 148,-399 148,-621 0,-636 -444,-1168 -1035,-1301l0 310c429,148 739,532 739,1005zm-2173 -1331l-192 192 695 695 -695 0 0 887 591 0 739 739 0 -991 636 636c-104,74 -207,133 -340,177l0 310c207,-44 384,-133 547,-266l296 296 192 -192 -1331 -1331 -1138 -1153zm1138 148l-310 310 310 310 0 -621z"/>
 </g>
</svg>
